<svg width="271" height="73" viewBox="0 0 271 73" fill="none" xmlns="http://www.w3.org/2000/svg">
<path d="M104.736 28.4737C104.736 31.5586 102.764 33.1032 98.8222 33.1099C94.8894 33.1099 92.9218 31.5652 92.9218 28.4737V14.9991C92.9218 11.9143 94.8894 10.3741 98.8222 10.3741C102.755 10.3741 104.736 11.9165 104.736 14.9991V17.9638H100.623V14.9991C100.623 14.0109 100.026 13.5124 98.8356 13.5057H98.8067C97.6248 13.5057 97.0328 14.0042 97.0328 14.9991V28.4737C97.0328 29.4686 97.6293 29.9672 98.82 29.9672C100.011 29.9672 100.623 29.4686 100.623 28.4737V25.509H104.736V28.4737Z" fill="#E2362D"/>
<path d="M108.079 10.7236H114.066C117.719 10.7302 119.546 12.2771 119.546 15.3598V18.6716C119.546 20.6103 118.467 21.8878 116.305 22.4999L120.926 32.7516H116.421L112.715 23.0608L112.192 23.1164V32.7494H108.079V10.7236ZM112.192 13.8552V20.1651H113.136C113.708 20.1651 114.1 20.1362 114.313 20.0761C115.059 19.8446 115.433 19.3772 115.433 18.6716V15.3598C115.433 14.356 114.836 13.8552 113.646 13.8552H112.192Z" fill="#E2362D"/>
<path d="M123.323 10.7236H127.436V32.7538H123.323V10.7236Z" fill="#E2362D"/>
<path d="M141.939 10.7236V13.8552H138.089V32.7516H133.975V13.8552H130.125V10.7236H141.939Z" fill="#E2362D"/>
<path d="M144.628 10.7236H148.741V32.7538H144.628V10.7236Z" fill="#E2362D"/>
<path d="M164.116 28.4737C164.116 31.5586 162.144 33.1032 158.202 33.1099C154.27 33.1099 152.302 31.5652 152.302 28.4737V14.9991C152.302 11.9143 154.27 10.3741 158.202 10.3741C162.135 10.3741 164.116 11.9165 164.116 14.9991V17.9638H160.003V14.9991C160.003 14.0109 159.407 13.5124 158.216 13.5057H158.187C157.005 13.5057 156.413 14.0042 156.413 14.9991V28.4737C156.413 29.4686 157.009 29.9672 158.2 29.9672C159.391 29.9672 160.003 29.4686 160.003 28.4737V25.509H164.116V28.4737Z" fill="#E2362D"/>
<path d="M178.926 24.937L180.264 32.7516H176.108L175.309 28.0798H171.109L170.295 32.7516H166.153L167.49 24.9704L170.397 10.7213H176.035L178.926 24.937ZM174.771 24.937L173.202 15.7737L171.632 24.937H174.771Z" fill="#E2362D"/>
<path d="M182.732 10.7236H188.719C192.372 10.7302 194.199 12.2771 194.199 15.3598V18.6716C194.199 20.6103 193.12 21.8878 190.958 22.4999L195.579 32.7516H191.074L187.368 23.0608L186.845 23.1164V32.7494H182.732V10.7236ZM186.845 13.8552V20.1651H187.789C188.361 20.1651 188.753 20.1362 188.966 20.0761C189.712 19.8446 190.086 19.3772 190.086 18.6716V15.3598C190.086 14.356 189.489 13.8552 188.299 13.8552H186.845Z" fill="#E2362D"/>
<path d="M197.905 10.7236H208.573V13.8552H202.018V20.1651H207.656V23.3101H202.018V29.62H208.573V32.7516H197.905V10.7236Z" fill="#E2362D"/>
<path d="M230.474 24.937L231.812 32.7516H227.656L226.857 28.0798H222.657L221.843 32.7516H217.701L219.038 24.9704L221.945 10.7213H227.583L230.474 24.937ZM226.319 24.937L224.749 15.7737L223.18 24.937H226.319Z" fill="#E2362D"/>
<path d="M245.805 17.0668C245.805 19.0945 244.521 20.8172 241.954 22.2328C239.388 23.655 238.104 24.897 238.104 25.9609V28.4759C238.104 29.4708 238.7 29.9694 239.891 29.9694C241.093 29.9694 241.694 29.4708 241.694 28.4759V25.5113H245.807V28.4759C245.807 31.5608 243.835 33.1054 239.893 33.1121C235.96 33.1121 233.993 31.5675 233.993 28.4759V25.6915C233.993 23.7151 235.277 22.0191 237.843 20.6058C240.412 19.1835 241.694 17.9816 241.694 17.0023V15.0036C241.694 14.0087 241.104 13.5101 239.92 13.5101H239.891C238.7 13.5168 238.104 14.0154 238.104 15.0036V17.9683H233.991V15.0036C233.991 11.9187 235.963 10.3785 239.904 10.3785C243.837 10.3785 245.805 11.921 245.805 15.0036V17.0691V17.0668Z" fill="#E2362D"/>
<path d="M249.366 10.7236H253.479V32.7538H249.366V10.7236Z" fill="#E2362D"/>
<path d="M268.797 24.937L270.134 32.7516H265.979L265.18 28.0798H260.98L260.165 32.7516H256.023L257.361 24.9704L260.268 10.7213H265.905L268.797 24.937ZM264.641 24.937L263.072 15.7737L261.503 24.937H264.641Z" fill="#E2362D"/>
<path d="M82.7681 0H81.4661V72.4474H82.7681V0Z" fill="#E2362D"/>
<path d="M97.1641 46.5645L98.8601 40.9222H100.67V49.4356H98.9024V45.5206L97.8229 49.4356H96.5342L95.4169 45.4939V49.4356H93.6341V40.9222H95.4436L97.1618 46.5645H97.1641Z" fill="#0073CF"/>
<path d="M109.049 47.7307C109.049 48.9549 108.257 49.5692 106.672 49.5714C105.092 49.5714 104.3 48.9571 104.3 47.7307V40.9222H106.132V47.7307C106.132 48.0512 106.312 48.2115 106.67 48.2115C107.029 48.2115 107.215 48.0512 107.215 47.7307V40.9222H109.047V47.7307H109.049Z" fill="#0073CF"/>
<path d="M112.68 49.4356V40.9222H114.511V48.078H116.993V49.4334H112.677L112.68 49.4356Z" fill="#0073CF"/>
<path d="M123.895 40.9222V42.2777H122.437V49.4334H120.605V42.2777H119.148V40.9222H123.897H123.895Z" fill="#0073CF"/>
<path d="M127.167 40.9222H128.999V49.4356H127.167V40.9222Z" fill="#0073CF"/>
<path d="M132.602 42.6271C132.602 41.403 133.392 40.7909 134.975 40.7909C136.557 40.7909 137.352 41.403 137.352 42.6271V43.8357H135.52V42.6271C135.52 42.3088 135.34 42.1508 134.981 42.1464H134.97C134.614 42.1464 134.436 42.3066 134.436 42.6271V43.3839C134.436 43.7289 134.906 44.1629 135.845 44.6859C136.851 45.2379 137.352 45.9012 137.352 46.6757V47.7307C137.352 48.9593 136.562 49.5714 134.979 49.5714C133.394 49.5692 132.602 48.9549 132.602 47.7307V46.5221H134.434V47.7307C134.434 48.0512 134.616 48.2115 134.979 48.2115C135.342 48.2115 135.518 48.0512 135.518 47.7307V46.7781C135.518 46.4019 135.048 45.9524 134.109 45.4293C133.103 44.8773 132.6 44.2029 132.6 43.4083V42.6249L132.602 42.6271Z" fill="#0073CF"/>
<path d="M140.926 40.9222H143.332C144.808 40.9245 145.545 41.5388 145.545 42.7629V44.0182C145.545 44.9174 145.017 45.5006 143.964 45.7654C143.713 45.8277 143.348 45.8589 142.874 45.8589H142.758V49.4356H140.926V40.9222ZM142.758 42.2777V44.4968H142.978C143.177 44.4968 143.306 44.4879 143.363 44.4723C143.595 44.4011 143.711 44.2497 143.711 44.0182V42.7629C143.711 42.4402 143.53 42.2777 143.172 42.2777H142.758Z" fill="#0073CF"/>
<path d="M148.955 40.9222H153.27V42.2777H150.789V44.4968H152.923V45.8567H150.789V48.0757H153.27V49.4312H148.955V40.9178V40.9222Z" fill="#0073CF"/>
<path d="M161.318 47.7307C161.318 48.9549 160.526 49.5692 158.941 49.5714C157.359 49.5714 156.569 48.9571 156.569 47.7307V42.6271C156.569 41.403 157.359 40.7909 158.941 40.7909C160.524 40.7909 161.318 41.403 161.318 42.6271V43.8357H159.487V42.6271C159.487 42.3088 159.306 42.1508 158.948 42.1464H158.937C158.581 42.1464 158.403 42.3066 158.403 42.6271V47.7307C158.403 48.0512 158.583 48.2115 158.941 48.2115C159.3 48.2115 159.487 48.0512 159.487 47.7307V46.5221H161.318V47.7307Z" fill="#0073CF"/>
<path d="M164.866 40.9222H166.698V49.4356H164.866V40.9222Z" fill="#0073CF"/>
<path d="M175.047 46.3819L175.57 49.4356H173.72L173.417 47.6662H172.069L171.762 49.4356H169.919L170.442 46.3953L171.559 40.9222H173.936L175.049 46.3819H175.047ZM173.182 46.3063L172.741 43.7289L172.3 46.3063H173.182Z" fill="#0073CF"/>
<path d="M178.759 49.4356V40.9222H180.591V48.078H183.073V49.4334H178.757L178.759 49.4356Z" fill="#0073CF"/>
<path d="M186.291 40.9222H188.123V49.4356H186.291V40.9222Z" fill="#0073CF"/>
<path d="M196.147 40.9222V42.2777H194.689V49.4334H192.857V42.2777H191.399V40.9222H196.149H196.147Z" fill="#0073CF"/>
<path d="M200.834 40.9222L201.787 44.2096L202.739 40.9222H204.676L202.744 45.7609L202.706 45.85V49.4334H200.874V45.8522L200.83 45.7587L198.898 40.92H200.834V40.9222Z" fill="#0073CF"/>
<path d="M212.617 40.9222H214.449V44.499H215.533V40.9222H217.364V49.4356H215.533V45.8589H214.449V49.4356H212.617V40.9222Z" fill="#0073CF"/>
<path d="M225.691 47.7307C225.691 48.9549 224.899 49.5692 223.314 49.5714C221.731 49.5714 220.941 48.9571 220.941 47.7307V42.6271C220.941 41.403 221.731 40.7909 223.314 40.7909C224.896 40.7909 225.691 41.403 225.691 42.6271V47.7307ZM223.859 42.6271C223.859 42.3088 223.679 42.1508 223.321 42.1464H223.309C222.953 42.1464 222.775 42.3066 222.775 42.6271V47.7307C222.775 48.0512 222.956 48.2115 223.314 48.2115C223.672 48.2115 223.859 48.0512 223.859 47.7307V42.6271Z" fill="#0073CF"/>
<path d="M229.156 42.6271C229.156 41.403 229.946 40.7909 231.529 40.7909C233.111 40.7909 233.906 41.403 233.906 42.6271V43.8357H232.074V42.6271C232.074 42.3088 231.894 42.1508 231.536 42.1464H231.524C231.168 42.1464 230.99 42.3066 230.99 42.6271V43.3839C230.99 43.7289 231.46 44.1629 232.399 44.6859C233.405 45.2379 233.908 45.9012 233.908 46.6757V47.7307C233.908 48.9593 233.118 49.5714 231.536 49.5714C229.951 49.5692 229.159 48.9549 229.159 47.7307V46.5221H230.99V47.7307C230.99 48.0512 231.173 48.2115 231.536 48.2115C231.898 48.2115 232.074 48.0512 232.074 47.7307V46.7781C232.074 46.4019 231.605 45.9524 230.665 45.4293C229.659 44.8773 229.156 44.2029 229.156 43.4083V42.6249V42.6271Z" fill="#0073CF"/>
<path d="M237.481 40.9222H239.887C241.362 40.9245 242.099 41.5388 242.099 42.7629V44.0182C242.099 44.9174 241.571 45.5006 240.519 45.7654C240.265 45.8277 239.902 45.8589 239.428 45.8589H239.312V49.4356H237.481V40.9222ZM239.312 42.2777V44.4968H239.533C239.731 44.4968 239.86 44.4879 239.918 44.4723C240.149 44.4011 240.265 44.2497 240.265 44.0182V42.7629C240.265 42.4402 240.085 42.2777 239.726 42.2777H239.315H239.312Z" fill="#0073CF"/>
<path d="M245.538 40.9222H247.369V49.4356H245.538V40.9222Z" fill="#0073CF"/>
<path d="M255.391 40.9222V42.2777H253.933V49.4334H252.101V42.2777H250.644V40.9222H255.393H255.391Z" fill="#0073CF"/>
<path d="M262.974 46.3819L263.497 49.4356H261.648L261.345 47.6662H259.996L259.689 49.4356H257.846L258.369 46.3953L259.486 40.9222H261.863L262.976 46.3819H262.974ZM261.109 46.3063L260.668 43.7289L260.228 46.3063H261.109Z" fill="#0073CF"/>
<path d="M266.687 49.4356V40.9222H268.518V48.078H271V49.4334H266.684L266.687 49.4356Z" fill="#0073CF"/>
<path d="M120.625 58.6902V58.1204H122.457V58.6902H123.448V60.0479H122.457V61.9197C122.457 63.0971 121.781 63.707 120.427 63.7515C120.298 63.7537 120.178 63.7559 120.065 63.7559C119.833 63.7559 119.633 63.7493 119.464 63.7337C118.293 63.6268 117.708 63.0214 117.708 61.9175V60.5264C117.708 59.9477 117.952 59.5604 118.444 59.3668C117.952 59.1709 117.708 58.7837 117.708 58.2072V56.9519C117.708 55.8145 118.331 55.2069 119.579 55.1246C119.742 55.1157 119.907 55.1112 120.076 55.1112C120.218 55.1112 120.365 55.1134 120.516 55.1201C121.812 55.1869 122.459 55.799 122.459 56.9519V57.3948H120.628V56.9519C120.628 56.6581 120.536 56.5001 120.352 56.48C120.274 56.4689 120.191 56.4622 120.098 56.4622C120.02 56.4622 119.938 56.4667 119.851 56.4756C119.646 56.4934 119.544 56.6514 119.544 56.9519V58.2072C119.544 58.4387 119.659 58.5922 119.891 58.6612C119.947 58.679 120.011 58.6879 120.089 58.6902H120.628H120.625ZM119.711 62.3649C119.777 62.3893 119.895 62.4027 120.069 62.4027C120.109 62.4027 120.154 62.4027 120.2 62.3982C120.483 62.3893 120.623 62.2291 120.623 61.9175V60.0456H120.085C120.007 60.0479 119.942 60.059 119.887 60.0746C119.655 60.1436 119.539 60.2927 119.539 60.5242V61.9153C119.539 62.1779 119.597 62.327 119.711 62.3626V62.3649Z" fill="#0073CF"/>
<path d="M131.852 55.2448H134.258C135.734 55.247 136.47 55.8613 136.47 57.0855V58.3408C136.47 59.1109 136.07 59.6117 135.271 59.8365L137.038 63.756H135.039L133.784 60.0946H133.684V63.756H131.852V55.2426V55.2448ZM133.684 56.6002V58.8193H133.904C134.102 58.8193 134.231 58.8104 134.289 58.7948C134.521 58.7236 134.636 58.5722 134.636 58.3408V57.0855C134.636 56.7627 134.456 56.6002 134.098 56.6002H133.684Z" fill="#0073CF"/>
<path d="M140.172 55.2448H144.487V56.6003H142.006V58.8193H144.142V60.1792H142.006V62.3983H144.487V63.7538H140.172V55.2404V55.2448Z" fill="#0073CF"/>
<path d="M147.786 56.9497C147.786 55.7255 148.576 55.1135 150.159 55.1135C151.741 55.1135 152.536 55.7255 152.536 56.9497V58.1583H150.704V56.9497C150.704 56.6314 150.524 56.4734 150.165 56.4689H150.154C149.798 56.4689 149.62 56.6292 149.62 56.9497V57.7064C149.62 58.0514 150.09 58.4854 151.029 59.0085C152.035 59.5605 152.538 60.2237 152.538 60.9983V62.0533C152.538 63.2819 151.748 63.894 150.165 63.894C148.581 63.8917 147.788 63.2774 147.788 62.0533V60.8447H149.62V62.0533C149.62 62.3738 149.803 62.534 150.165 62.534C150.528 62.534 150.704 62.3738 150.704 62.0533V61.1007C150.704 60.7245 150.234 60.2749 149.295 59.7519C148.289 59.1999 147.786 58.5255 147.786 57.7309V56.9475V56.9497Z" fill="#0073CF"/>
<path d="M156.112 55.2448H160.428V56.6003H157.946V58.8193H160.081V60.1792H157.946V62.3983H160.428V63.7538H156.112V55.2404V55.2448Z" fill="#0073CF"/>
<path d="M168.47 60.7045L168.993 63.7582H167.143L166.84 61.9887H165.492L165.185 63.7582H163.342L163.865 60.7178L164.982 55.2448H167.359L168.472 60.7045H168.47ZM166.605 60.6288L166.164 58.0514L165.723 60.6288H166.605Z" fill="#0073CF"/>
<path d="M172.184 55.2448H174.59C176.066 55.247 176.803 55.8613 176.803 57.0855V58.3408C176.803 59.1109 176.402 59.6117 175.603 59.8365L177.37 63.756H175.372L174.116 60.0946H174.016V63.756H172.184V55.2426V55.2448ZM174.016 56.6002V58.8193H174.237C174.435 58.8193 174.564 58.8104 174.622 58.7948C174.853 58.7236 174.969 58.5722 174.969 58.3408V57.0855C174.969 56.7627 174.788 56.6002 174.43 56.6002H174.018H174.016Z" fill="#0073CF"/>
<path d="M185.143 62.0533C185.143 63.2774 184.35 63.8917 182.766 63.894C181.183 63.894 180.393 63.2797 180.393 62.0533V56.9497C180.393 55.7255 181.183 55.1135 182.766 55.1135C184.348 55.1135 185.143 55.7255 185.143 56.9497V58.1583H183.311V56.9497C183.311 56.6314 183.131 56.4734 182.772 56.4689H182.761C182.405 56.4689 182.227 56.6292 182.227 56.9497V62.0533C182.227 62.3738 182.407 62.534 182.766 62.534C183.124 62.534 183.311 62.3738 183.311 62.0533V60.8447H185.143V62.0533Z" fill="#0073CF"/>
<path d="M188.661 55.2448H190.493V58.8215H191.577V55.2448H193.409V63.7582H191.577V60.1814H190.493V63.7582H188.661V55.2448Z" fill="#0073CF"/>
<path d="M206.786 62.0533C206.786 63.2774 205.993 63.8917 204.409 63.894C202.826 63.894 202.036 63.2797 202.036 62.0533V56.9497C202.036 55.7255 202.826 55.1135 204.409 55.1135C205.991 55.1135 206.786 55.7255 206.786 56.9497V58.1583H204.954V56.9497C204.954 56.6314 204.774 56.4734 204.415 56.4689H204.404C204.048 56.4689 203.87 56.6292 203.87 56.9497V62.0533C203.87 62.3738 204.05 62.534 204.409 62.534C204.767 62.534 204.954 62.3738 204.954 62.0533V60.8447H206.786V62.0533Z" fill="#0073CF"/>
<path d="M210.307 55.2448H214.622V56.6003H212.141V58.8193H214.275V60.1792H212.141V62.3983H214.622V63.7538H210.307V55.2404V55.2448Z" fill="#0073CF"/>
<path d="M218.032 55.2448H219.842L221.064 59.438V55.2448H222.782V63.7582H220.97L219.804 59.6806V63.7582H218.032V55.2448Z" fill="#0073CF"/>
<path d="M230.777 55.2448V56.6002H229.319V63.7559H227.487V56.6002H226.029V55.2448H230.779H230.777Z" fill="#0073CF"/>
<path d="M234.022 55.2448H238.337V56.6003H235.856V58.8193H237.99V60.1792H235.856V62.3983H238.337V63.7538H234.022V55.2404V55.2448Z" fill="#0073CF"/>
<path d="M241.745 55.2448H244.151C245.627 55.247 246.363 55.8613 246.363 57.0855V58.3408C246.363 59.1109 245.963 59.6117 245.164 59.8365L246.931 63.756H244.932L243.677 60.0946H243.577V63.756H241.745V55.2426V55.2448ZM243.577 56.6002V58.8193H243.797C243.995 58.8193 244.124 58.8104 244.182 58.7948C244.414 58.7236 244.529 58.5722 244.529 58.3408V57.0855C244.529 56.7627 244.349 56.6002 243.991 56.6002H243.579H243.577Z" fill="#0073CF"/>
<path d="M2.6041 22.8271L7.02662 41.9283L14.9613 48.138L11.5738 35.7496C11.5738 35.7496 11.6361 33.2101 13.9575 32.9586C16.279 32.7071 17.0001 36.0011 17.0001 36.0011L20.7638 44.5947L29.8603 51.1806C29.8603 51.1806 32.2753 54.1297 31.3649 58.4253C30.4546 62.7232 27.757 66.4224 20.9841 67.553C20.9841 67.553 20.8907 63.4132 19.07 60.2771C17.2516 57.1411 11.2911 53.7535 11.2911 53.7535C11.2911 53.7535 5.48864 50.179 4.70519 49.1752C3.92173 48.1714 2.88677 45.85 2.6041 44.2185C2.32143 42.5871 0 23.1409 0 23.1409C0 23.1409 0.124641 22.2951 0.910322 21.6986C0.910322 21.6986 2.57294 21.574 2.6041 22.8271Z" fill="#E2362D"/>
<path d="M64.5172 49.1952C62.9814 50.5151 58.3296 53.3818 58.3296 53.3818C58.3296 53.3818 56.0705 54.6705 53.9093 56.391L56.0928 46.6468L62.0399 41.9928L64.5172 49.1952ZM55.6654 32.9563C53.344 32.7048 52.6229 35.9989 52.6229 35.9989L51.3987 38.7944L57.1366 39.0882L58.0492 35.7474C58.0492 35.7474 57.9869 33.2078 55.6654 32.9563ZM50.8779 39.9852L48.8592 44.5924L48.3851 44.9352L55.4852 45.1266L56.8006 40.3168L50.8779 39.9829V39.9852ZM64.5305 33.2078H68.3654C68.5346 31.819 68.7015 30.4412 68.8573 29.1548H65.4698L64.5305 33.2078ZM68.7127 21.6964C68.7127 21.6964 67.05 21.5717 67.0189 22.8248L65.8014 28.0797H69.0287C69.3737 25.2219 69.6207 23.1386 69.6207 23.1386C69.6207 23.1386 69.4961 22.2929 68.7104 21.6964H68.7127ZM62.9102 40.1988L65.5721 47.7641C66.1954 46.6156 66.8097 45.0487 67.0189 43.849C67.1435 43.1346 67.6554 39.0081 68.1963 34.5944H64.21L62.9124 40.1988H62.9102ZM45.1578 53.9271C43.7979 53.9271 42.6917 55.0333 42.6917 56.391C42.6917 57.7487 43.7979 58.8571 45.1578 58.8571C46.5177 58.8571 47.6239 57.7509 47.6239 56.391C47.6239 55.0311 46.5177 53.9271 45.1578 53.9271ZM49.696 56.391C49.696 58.8927 47.6595 60.9293 45.1578 60.9293C42.6561 60.9293 40.6195 58.8927 40.6195 56.391C40.6195 53.8893 42.6561 51.8527 45.1578 51.8527C47.6595 51.8527 49.696 53.8893 49.696 56.391ZM48.7078 56.391C48.7078 54.4346 47.1142 52.841 45.1578 52.841C43.2014 52.841 41.6078 54.4346 41.6078 56.391C41.6078 58.3474 43.2014 59.941 45.1578 59.941C47.1142 59.941 48.7078 58.3474 48.7078 56.391ZM54.9777 46.7959L54.8998 47.1119L54.8731 47.1075L54.7217 47.8219L52.0887 58.3674C51.4633 58.9951 50.9202 59.6406 50.5507 60.2771C48.7323 63.4132 48.6366 67.553 48.6366 67.553C41.8615 66.4246 39.1639 62.7232 38.2558 58.4253C37.3455 54.1274 39.7604 51.1806 39.7604 51.1806L46.1438 46.5577L54.9777 46.7959ZM50.78 56.391C50.78 53.2906 48.2582 50.7666 45.1556 50.7666C42.0529 50.7666 39.5311 53.2906 39.5311 56.391C39.5311 59.4914 42.0551 62.0154 45.1556 62.0154C48.256 62.0154 50.78 59.4914 50.78 56.391Z" fill="url(#paint0_linear_624_1351)"/>
<path d="M8.51782 40.9778L12.0278 43.7244L10.2828 37.3388C9.92671 37.3232 9.88887 37.0583 9.73752 36.8224C9.63736 36.6688 9.29238 36.5197 9.14103 36.5798C8.34199 36.8958 7.94581 36.8113 7.70321 35.9922C7.43612 35.0885 7.25806 34.1471 7.15568 33.21C6.95981 31.4295 7.31593 29.7023 7.84565 28.0107C8.03707 27.3987 8.21735 26.8511 8.82942 26.3726C9.45485 25.8852 10.0981 25.6069 10.9194 25.2709C10.8749 25.7472 10.837 26.1389 10.7947 26.5685C11.3823 26.9268 12.0411 27.3297 12.7623 27.7704C12.8157 27.5745 12.8758 27.4298 12.8914 27.2807C12.9559 26.5952 13.1763 26.4639 13.8173 26.7755C14.8077 27.2584 15.836 27.0003 16.8532 26.9535C16.9288 26.9491 17.0468 26.8445 17.0668 26.7666C17.2315 26.1545 17.3896 25.538 17.5209 24.917C17.5409 24.8213 17.4163 24.6966 17.3584 24.5853C16.9222 24.957 16.2544 24.6009 15.9785 24.8101C15.5801 25.1106 15.382 24.799 15.1327 24.7723C14.988 24.7567 14.8211 24.3783 14.7788 24.1424C14.7187 23.8108 14.7632 23.4591 14.7632 23.1186C14.1155 23.1319 13.5992 23.6082 13.8262 24C14.0977 24.4696 13.8128 24.681 13.6125 25.1618C13.3699 24.5052 13.0205 23.9911 13.0227 23.4792C13.0294 22.5443 12.1947 22.4064 11.803 21.8588C11.5292 22.7647 12.1903 23.1698 12.878 23.7396C11.8853 23.5125 12.6755 24.3917 12.3327 24.4451C11.8742 23.7885 11.4469 23.1787 11.0418 22.5978C10.7191 22.8025 10.2695 22.945 10.058 23.2521C9.71304 23.7574 9.45708 24.3494 9.2857 24.9392C9.13212 25.469 8.95184 25.923 8.43325 26.1745C8.17284 25.7628 8.44883 23.9844 8.8183 23.7017C8.84946 23.6772 8.88729 23.655 8.92736 23.6483C9.50605 23.5437 9.6574 23.0229 9.58617 22.6356C9.44595 21.87 9.84881 21.4337 10.2851 20.9596C10.354 20.8862 10.3741 20.7682 10.4475 20.6035C10.2472 20.7126 10.0847 20.8639 10.0091 20.8305C9.50605 20.6013 9.39699 20.9886 9.23451 21.289C9.1477 21.4493 9.08316 21.6207 9.01639 21.7921C7.26029 26.2213 6.64821 30.6816 7.17348 35.1687L8.52005 40.9823L8.51782 40.9778Z" fill="#0073CF"/>
<path d="M24.0356 24.1224C23.3835 24.0022 22.8827 23.8976 22.3775 23.8219C21.7743 23.7307 21.8611 23.3122 22.0213 22.9672C22.2684 22.4375 22.0614 22.0903 21.7431 21.6897C21.4627 21.338 21.2557 20.9196 21.0776 20.5034C21.0264 20.3832 21.1333 20.0983 21.2557 20.0181C21.8166 19.6465 22.2439 18.952 23.1209 19.2147V19.6442C22.7914 19.9692 22.5555 20.1984 22.3062 20.4433C23.2967 21.4115 23.5972 22.6712 24.0356 24.1202V24.1224Z" fill="#0073CF"/>
<path d="M16.1521 20.2897C17.147 20.7816 17.5943 19.8334 18.3778 19.7555C18.2198 20.1161 18.0885 20.421 17.9438 20.7504C18.2888 20.9641 18.6827 21.1688 19.0233 21.4404C19.1835 21.5672 19.3326 21.8321 19.3148 22.0191C19.3015 22.1726 19.0411 22.4086 18.8764 22.4219C18.4713 22.4508 18.0395 22.4353 17.6544 22.3195C17.1447 22.166 16.7441 22.2617 16.2923 22.5109C16.0185 22.6623 15.5689 22.7736 15.3397 22.6489C15.0437 22.4865 15.1817 22.1281 15.3842 21.8143C15.6914 21.3402 15.9006 20.8038 16.1521 20.2897Z" fill="#0073CF"/>
<path d="M59.1909 21.3558C59.1909 21.3558 59.2021 21.3736 59.2065 21.3847C59.1909 21.3491 59.1731 21.3135 59.1553 21.2757C57.9601 18.4957 56.2975 15.9406 54.2009 13.7705C54.054 13.6103 53.9093 13.4478 53.7602 13.292C50.6508 10.0402 46.6957 7.59414 42.4156 6.18525C42.4112 6.18525 42.4067 6.18303 42.4023 6.1808C37.341 4.51818 31.8234 4.31119 26.702 5.95823C26.7487 5.9471 26.7955 5.93597 26.84 5.92484C20.125 7.80558 14.8278 11.823 10.9416 17.9638C10.8548 18.0996 10.7435 18.2442 10.7235 18.3956C10.6389 19.0811 10.5811 19.7689 10.4987 20.6324C11.1509 19.6153 11.7184 18.7294 12.286 17.8436C12.3016 17.8547 12.3171 17.8659 12.3305 17.877C12.2326 18.1151 12.1346 18.3533 12.0367 18.5892C12.4974 18.4913 12.8647 18.2865 13.2297 18.0773C13.3343 18.0172 13.43 17.8814 13.5279 17.8814C14.0332 17.8837 14.1623 17.5743 14.2691 17.1536C14.3314 16.911 14.5941 16.5037 14.6898 16.5238C15.0659 16.6039 15.0993 16.3769 15.0615 16.1721C14.9613 15.6379 15.3174 15.5244 15.6847 15.3686C15.9273 15.2662 16.1409 15.1015 16.368 14.9657C16.3323 14.9034 16.2967 14.8433 16.2611 14.781C16.0363 14.8901 15.8182 15.0169 15.5845 15.1037C15.3642 15.1861 15.1282 15.2284 14.899 15.2863C14.9435 15.0236 14.9301 14.7298 15.0459 14.5028C15.1794 14.2402 15.4265 14.0332 15.6246 13.8017C15.767 13.6348 15.9095 13.4678 16.0519 13.3009C15.8138 13.2853 15.5934 13.3343 15.5556 13.4478C15.2351 14.3492 14.14 14.7076 14.091 15.8983C14.0621 16.6083 13.2987 17.2872 12.8647 17.9794C12.8179 17.9549 12.7734 17.9304 12.7267 17.9059V16.9066C12.671 16.8532 12.6132 16.802 12.5575 16.7486C12.3973 17.0334 12.2348 17.3161 12.0745 17.601C12.148 16.5037 12.8469 15.8471 13.4345 15.1104C14.4049 13.8907 15.3241 12.6376 16.6061 11.6939C17.4207 11.093 18.3177 11.0396 19.2481 11.0284C19.3527 11.0284 19.4573 11.1152 19.7088 11.2243C19.3527 11.478 19.1123 11.7251 18.8185 11.8431C18.498 11.9721 18.1285 11.981 17.7768 12.0434C18.2776 12.6465 18.3978 12.74 18.5648 12.6643C18.5113 12.5731 18.4579 12.4818 18.3689 12.3305H19.1123L19.0077 12.1636C19.3304 11.9009 19.662 11.6494 19.9714 11.3712C20.0894 11.2666 20.194 11.1086 20.2274 10.9572C20.2941 10.6567 20.3097 10.3474 20.7949 10.4408C20.7059 10.59 20.628 10.7168 20.5523 10.8415C20.7838 10.866 20.9841 10.8281 21.0709 10.7102C21.7587 9.77312 22.9405 9.81987 23.833 9.3035C24.0133 9.19889 24.1936 9.09873 24.3739 8.99857C24.345 8.92735 24.3183 8.85613 24.2893 8.78268H26.4282C26.2546 8.45549 25.4801 8.51559 25.7516 7.90574C25.943 7.4784 26.1812 7.00655 26.86 7.2536C26.7999 8.03483 28.1932 8.39763 27.4076 9.42369C28.3713 9.35691 27.7904 8.37314 28.2667 8.14834C28.0886 8.13276 27.8037 8.19063 27.6324 8.07489C27.4432 7.9458 27.3608 7.66091 27.2162 7.41831C27.2785 7.33818 27.3697 7.22022 27.4476 7.12006C27.5789 7.22912 27.7637 7.43166 27.806 7.40495C28.1287 7.20464 28.4247 6.95981 28.7497 6.71498C28.7408 6.69717 28.6985 6.59924 28.6606 6.51689C29.0212 6.37221 29.3618 6.26315 29.6734 6.09845C29.9137 5.97158 30.0918 5.70227 30.3388 5.61769C30.8307 5.44854 31.3471 5.31945 31.8546 5.1948C32.9452 5.14361 34.0358 5.15474 35.1219 5.23264C35.0596 5.38399 35.0173 5.4886 34.9817 5.57986C35.4335 5.5576 35.8475 5.50863 36.2615 5.52199C36.9248 5.54202 37.588 5.58876 38.2491 5.64885C38.3025 5.6533 38.3581 5.65998 38.4116 5.66443C43.3415 6.60814 48.0334 8.845 51.8639 12.1168C51.9106 12.1992 51.9529 12.2771 51.9885 12.3416C51.3586 12.188 50.6842 12.0233 50.0054 11.8564V13.9708C50.2836 14.1667 50.6464 14.6052 50.8667 14.5429C51.55 14.3492 51.708 14.899 52.0775 15.195C52.0642 15.0837 52.053 14.988 52.0419 14.8901C52.0976 14.8634 52.1532 14.8389 52.2088 14.8122C52.6206 15.8204 53.7112 16.4436 53.7068 17.8214C53.2816 17.0602 52.9099 16.3991 52.5382 15.7358C52.4893 15.7603 52.4381 15.787 52.3891 15.8115C52.4225 15.9228 52.4514 16.0363 52.4893 16.1454C52.5293 16.2589 52.556 16.3835 52.6206 16.4837C53.2905 17.5008 53.2015 18.5959 52.9656 19.7065C52.8654 20.1762 52.6785 20.4277 52.0842 19.9069C52.0219 20.3876 51.984 20.7415 51.9284 21.0932C51.9039 21.2467 51.8861 21.4448 51.7882 21.5383C51.4766 21.8299 51.6502 21.9901 51.8683 22.2305C52.151 22.5421 52.4047 22.896 52.5961 23.2699C52.9723 24 52.8743 24.1714 52.053 24.3806C52.0107 24.2737 51.9128 24.1558 51.9284 24.0556C52.0886 23.1141 50.9046 22.7736 50.9446 21.8766C50.9446 21.861 50.4861 21.7809 50.2546 21.8165C50.1367 21.8343 50.0477 22.0458 49.8607 22.2728C49.8318 21.9256 49.8295 21.7186 49.7917 21.5183C49.765 21.3758 49.6893 21.2423 49.6359 21.1065C49.5202 21.1822 49.3822 21.2378 49.2909 21.3358C49.1707 21.4671 49.1151 21.6674 48.9815 21.7742C48.2604 22.3529 48.8881 22.6445 49.2286 22.9962C49.2642 23.034 49.3377 23.0362 49.4222 23.0652C49.7605 22.4486 50.1055 22.8827 50.5774 23.0518C50.3437 23.1787 50.1857 23.2232 50.0855 23.3256C49.8206 23.5993 49.5001 23.902 49.7828 24.3183C50.0699 24.7411 50.475 25.0928 50.7154 25.5357C50.8645 25.8095 50.8022 26.199 50.8244 26.4216C50.9313 26.7109 51.1138 26.9491 51.0648 27.1227C50.8467 27.8883 50.6263 28.6651 50.2769 29.3729C50.1055 29.7201 49.6737 29.9694 49.3087 30.1808C48.8458 30.4501 48.3272 30.6193 47.8464 30.8619C47.7485 30.9109 47.7173 31.0911 47.6884 31.1468C47.4703 30.9999 47.2477 30.7194 47.0407 30.7283C46.2884 30.764 45.8833 31.6765 46.3196 32.2953C46.4998 32.5512 46.7202 32.7916 46.9583 32.9941C47.6216 33.5595 47.8798 34.9238 47.3612 35.4024C46.9494 35.7852 46.482 36.1057 46.0347 36.4596C45.9701 36.2259 45.9768 35.9299 45.8344 35.803C45.3002 35.3222 44.717 34.8994 44.0872 34.4008C43.9892 34.837 43.9136 35.2021 43.8245 35.5671C43.7533 35.8586 44.1762 37.1829 44.4433 37.2742C45.5984 37.6704 45.3491 38.7654 45.7698 39.6691C44.9196 39.4154 44.4878 38.9724 44.3053 38.2424C44.2096 37.8618 44.1094 37.4033 43.8446 37.1629C43.3082 36.6777 43.3994 36.1369 43.4729 35.5559C43.5997 34.5432 43.0032 33.7576 42.7295 32.8205C42.5269 32.9941 42.4312 33.1121 42.3088 33.17C42.1174 33.259 41.9059 33.3057 41.7034 33.3703C41.6811 33.1744 41.6945 32.963 41.6255 32.7827C41.4653 32.362 41.3006 31.9347 41.0713 31.5519C40.8465 31.1735 40.5371 30.8441 40.2656 30.4946C40.1855 30.3923 39.9874 29.9582 39.8828 29.8292C39.52 30.2632 39.2084 30.1408 38.761 30.1274C38.6809 30.1274 38.2201 30.2832 38.1111 30.4279C38.0087 30.5636 37.6103 30.5035 37.4968 30.6237C37.2542 30.8797 37.0138 30.9198 36.7512 31.1557C36.3572 31.5118 36.0567 32.1773 35.6205 32.4689C35.2443 32.7204 35.6138 33.8355 35.6761 34.2494C35.8364 35.3289 35.5893 36.2593 34.5499 36.9938C33.5283 34.8882 33.446 32.5468 33.3347 30.2943C33.0943 30.4835 33.4348 29.3751 33.2145 29.3506C32.9185 29.3172 33.3013 29.1036 33.0119 28.8854C33.2301 28.7853 31.4606 29.5932 31.6743 29.4953C31.0088 29.3729 30.0428 29.9293 29.6934 29.4597C29.5131 29.2171 29.2905 29.0791 28.8921 29.1102C28.0174 29.177 27.1293 29.0991 26.248 29.0769C25.8852 29.068 25.5068 29.0969 25.4155 28.585C25.4044 28.5204 25.1017 28.4358 24.9704 28.4737C24.178 28.7096 23.3145 28.398 22.9339 27.6301C22.718 27.1939 22.4575 27.0114 21.9812 27.1583C21.7431 28.1153 22.8404 28.4403 22.9027 29.3729C23.0652 29.1369 23.1297 29.0457 23.2321 28.8966C23.2566 29.1303 23.2477 29.3128 23.2989 29.4775C23.3412 29.6133 23.4836 29.8447 23.5237 29.8336C23.9132 29.7223 24.4429 29.9894 24.6744 29.4018C24.7523 29.2037 24.9726 29.0613 25.1551 28.8632C25.2976 29.4152 25.604 29.7698 26.0744 29.9271C26.4371 30.0495 26.8044 30.646 26.5952 30.8552C26.0521 31.4027 25.9408 32.2463 25.124 32.6402C24.3717 33.003 23.7507 33.6374 22.9316 33.9378C22.324 34.1604 21.7386 34.4453 21.1421 34.7013C20.7949 34.8504 20.5501 34.8526 20.4166 34.3897C20.2296 33.742 20.007 33.0965 19.711 32.4933C19.4751 32.017 18.8853 31.632 18.8385 31.1646C18.7473 30.2743 18.1085 29.7268 17.7969 28.9901C17.6678 28.6829 17.443 28.418 17.3117 28.211C17.1158 28.2756 16.9845 28.3179 16.8509 28.3624C17.0891 29.0323 17.1915 29.818 17.6099 30.3589C18.0172 30.8864 18.1419 31.4094 18.242 32.0015C18.2598 32.1083 18.3733 32.1951 18.4312 32.2975C18.607 32.6069 18.7695 32.9229 18.9565 33.2256C19.0767 33.4215 19.2013 33.6262 19.3705 33.7798C19.8557 34.2183 20.3787 34.5989 20.5679 35.2933C20.6213 35.4892 20.9774 35.7652 21.1555 35.7385C21.9367 35.6249 22.7024 35.4135 23.5949 35.211C23.3278 36.7957 22.7647 38.1289 21.5806 39.1572C21.249 39.4443 20.9018 39.7136 20.5879 40.0185L22.1126 43.4996L31.0155 49.9475L31.1535 50.1144C31.2737 50.2591 34.0625 53.7401 33.0008 58.7614C32.9652 58.935 32.9162 59.0975 32.8762 59.2666C34.1827 59.3334 35.5003 59.3022 36.8224 59.1709C36.7467 58.8882 36.671 58.6033 36.6087 58.3096C35.5448 53.2883 38.3359 49.8073 38.4561 49.6626L38.5941 49.4957L47.3011 43.1902C46.8715 43.139 46.442 43.0433 46.0124 42.8764C46.5355 42.0684 47.1119 42.8986 47.6105 42.7873L48.2871 41.2404C48.1736 41.2404 48.0601 41.2404 47.951 41.2338C47.7908 40.8042 47.5994 40.4548 47.537 40.0808C47.4814 39.747 47.3723 39.2484 48.0512 39.3975C48.1335 39.4154 48.2671 39.3842 48.3205 39.3241C48.8435 38.7565 49.3599 38.1801 49.8785 37.6081L51.0158 35.0084C51.1249 34.5633 51.2829 34.1181 51.4832 33.693C51.2473 33.3102 51.254 32.7938 51.5545 32.1261C51.895 32.1662 52.102 32.3531 52.1154 32.6224C52.9745 31.4584 54.2365 30.6638 55.8279 30.8374C58.8126 31.1601 59.665 33.8622 59.6984 35.2443L59.7051 35.4892L58.0892 41.4007C58.0937 41.5988 58.0892 41.8102 58.1048 42.0373C58.0603 42.0061 58.0002 41.9772 57.9401 41.9438L57.5795 43.2614L59.6138 41.67C62.1578 35.0307 61.8729 27.6257 59.1998 21.3469L59.1909 21.3558ZM23.3946 8.89396H22.0703C22.6734 7.99922 23.3745 7.27363 24.4318 7.02213C22.8381 8.1795 22.7068 8.37092 23.3946 8.89396ZM36.1168 37.8329C35.9677 37.6993 35.7073 37.5814 35.6895 37.4322C35.6405 37.0605 35.7006 36.6755 35.7184 36.2971C35.7986 36.2904 35.8809 36.2838 35.961 36.2749C36.128 36.5842 36.3617 36.8802 36.4351 37.2097C36.4729 37.3855 36.2326 37.6214 36.1191 37.8306L36.1168 37.8329ZM46.0903 42.3489C46.0413 42.4357 45.6162 42.4446 45.5139 42.3422C45.0554 41.8837 44.5857 41.4096 44.2407 40.8665C43.7288 40.063 43.3237 39.1928 42.5648 38.5674C42.3934 38.4271 42.2821 38.2157 42.0395 37.9063C43.6643 38.1111 44.2808 39.5266 45.3803 40.2122C45.5606 40.5171 45.7431 40.8198 45.9634 41.1915C46.0814 41.0468 46.1638 40.9467 46.2884 40.7931C46.3752 40.9889 46.5132 41.147 46.4843 41.2649C46.393 41.6389 46.2773 42.0172 46.0903 42.3489ZM47.4725 32.1906C47.379 32.0616 47.2855 31.9325 47.192 31.8034C47.4168 31.6587 47.6439 31.5118 47.8687 31.3671C47.9354 31.4584 48.0044 31.5474 48.0712 31.6387C47.8709 31.8234 47.6706 32.0081 47.4703 32.1929L47.4725 32.1906ZM51.412 30.5303C50.8845 29.8581 50.9402 29.3551 51.5522 28.9789C51.5055 29.5042 51.4632 29.9627 51.412 30.5303ZM53.551 13.6926C54.0362 14.1734 54.5058 14.672 54.9576 15.1861C55.1935 15.6446 55.3939 16.1253 55.6209 16.5905C55.3249 16.428 55.1446 16.2122 54.9932 15.9762C54.508 15.2173 54.0184 14.4605 53.551 13.6904V13.6926ZM55.5452 20.283C55.3939 20.4611 55.2714 20.6057 55.1846 20.7059C54.9376 20.6747 54.7217 20.6458 54.4323 20.6102V19.3438C54.7706 19.6309 55.1535 19.9536 55.5452 20.283ZM53.4753 24.7901C53.6467 25.1796 53.8158 25.5691 53.9872 25.9564C53.3773 25.8317 53.1926 25.1685 53.4753 24.7901ZM54.6838 24.937C54.6416 24.848 54.5592 24.6655 54.488 24.5119C54.1497 24.5987 53.8158 24.6855 53.482 24.7723C53.5465 24.1535 53.9471 23.9688 54.3478 23.9822C55.1357 23.192 55.2915 22.3418 54.8018 21.3825C55.8657 22.166 55.3449 23.399 55.7811 24.1469C55.3627 24.4496 55.0444 24.6766 54.6861 24.9348L54.6838 24.937Z" fill="#0073CF"/>
<path d="M34.0758 28.0263C34.1382 28.0196 34.1426 28.1198 34.0781 28.1242C34.0603 28.1242 34.0224 28.1086 34.0068 28.1175C33.9779 28.1353 33.9668 28.1687 33.929 28.1754C33.8822 28.1865 33.8844 28.2043 33.8555 28.2377C33.8288 28.2711 33.8266 28.2711 33.8555 28.3067C33.8711 28.3267 33.8778 28.3713 33.8778 28.3957C33.8778 28.4336 33.8243 28.4403 33.8444 28.4892C33.86 28.5248 33.851 28.5115 33.8177 28.5271C33.7865 28.5426 33.7843 28.5872 33.7687 28.6139C33.7353 28.6673 33.6552 28.694 33.6396 28.7585C33.6329 28.7852 33.6596 28.832 33.6352 28.852C33.6107 28.8698 33.5817 28.8899 33.5528 28.8988C33.5239 28.9077 33.486 28.9054 33.466 28.9277C33.4326 28.9633 33.4371 29.0212 33.4215 29.0657C33.4081 29.1058 33.3881 29.1213 33.3636 29.1547C33.3369 29.1903 33.3213 29.2326 33.2924 29.266C33.279 29.2816 33.2479 29.3306 33.2301 29.3395C33.1989 29.355 33.1522 29.3127 33.1255 29.3528C33.1054 29.3862 33.0943 29.4062 33.0654 29.4352C33.0364 29.4619 33.0409 29.5042 33.0186 29.5353C32.9986 29.5643 32.963 29.5709 32.9341 29.591C32.9029 29.6154 32.9162 29.6466 32.9007 29.6755C32.8784 29.7178 32.7649 29.6867 32.7248 29.6933C32.6914 29.7 32.638 29.6978 32.6091 29.7134C32.5913 29.7245 32.5445 29.7646 32.5334 29.7423C32.5156 29.7089 32.5178 29.6867 32.5245 29.6533C32.529 29.6266 32.5401 29.6021 32.5045 29.6043C32.4021 29.611 32.3376 29.6422 32.2752 29.7223C32.2396 29.7668 32.2307 29.8069 32.1773 29.838C32.135 29.8625 32.0883 29.8825 32.0571 29.9226C32.0171 29.9782 32.0326 30.1518 32.1172 30.163C32.1617 30.1697 32.1907 30.203 32.2396 30.2008C32.2953 30.1964 32.2619 30.2542 32.2441 30.2854C32.2196 30.3277 32.1996 30.3633 32.2174 30.4123C32.2329 30.459 32.2597 30.508 32.2953 30.5436C32.3198 30.5681 32.3487 30.5636 32.3821 30.5592C32.4488 30.548 32.3977 30.597 32.4088 30.6393C32.4377 30.7417 32.5624 30.9041 32.4978 31.011C32.4845 31.0332 32.4711 31.0243 32.4666 31.0555C32.4622 31.0777 32.4444 31.0555 32.4288 31.0599C32.431 31.0599 32.4266 30.9687 32.3932 30.9709C32.3465 30.9731 32.3064 31.0065 32.2597 31.0132C32.2418 31.0132 32.2129 31.0021 32.2018 31.0199C32.1907 31.0355 32.1884 31.0622 32.1907 31.08C32.1617 31.0755 32.1283 31.0755 32.0994 31.0644C32.066 31.051 32.0549 31.011 32.0237 30.9976C31.9903 30.9843 31.9703 31.0176 31.9392 31.0266C31.9035 31.0377 31.8434 31.0065 31.8101 30.9976C31.7833 30.9909 31.7522 30.9731 31.7255 30.982C31.6988 30.9909 31.6876 31.0377 31.6943 31.0622C31.701 31.0866 31.6921 31.1267 31.6587 31.1156C31.6431 31.1089 31.6298 31.1156 31.6142 31.1156C31.5942 31.1134 31.583 31.0911 31.563 31.0866C31.4896 31.0711 31.5029 31.1868 31.4918 31.218C31.4829 31.2447 31.4361 31.258 31.474 31.2892C31.4829 31.2981 31.4985 31.3159 31.5096 31.3204C31.5207 31.3226 31.5318 31.307 31.5407 31.3204C31.5719 31.3582 31.6186 31.3849 31.632 31.4339C31.6454 31.4895 31.7099 31.5385 31.7566 31.5652C31.8145 31.5986 31.8746 31.6342 31.9392 31.6542C31.9725 31.6653 32.0081 31.6564 32.0415 31.6587C32.0883 31.6587 32.046 31.5963 32.0994 31.6164C32.1283 31.6275 32.1729 31.6275 32.1996 31.6052C32.2174 31.5897 32.2374 31.5741 32.2619 31.5919C32.273 31.5986 32.2107 31.652 32.2062 31.6542C32.1729 31.6831 32.1395 31.6653 32.1039 31.6854C32.0749 31.7009 32.0371 31.7054 32.0126 31.7232C31.9814 31.7477 31.957 31.7099 31.9258 31.7277C31.9124 31.7366 31.8702 31.7633 31.859 31.7432C31.8434 31.7143 31.8434 31.6898 31.8034 31.6898C31.7433 31.6898 31.7077 31.741 31.7144 31.7967C31.721 31.8701 31.7989 31.9324 31.8457 31.9814C31.8969 32.037 31.9481 32.086 31.997 32.1461C32.0482 32.2084 32.0794 32.2819 32.1395 32.3375C32.1684 32.3642 32.2085 32.3709 32.224 32.4087C32.2418 32.451 32.2864 32.4443 32.322 32.4599C32.3531 32.4733 32.3776 32.5156 32.4155 32.4889C32.4266 32.4822 32.4444 32.4621 32.46 32.4644C32.4845 32.4666 32.4978 32.4733 32.5223 32.4644C32.5512 32.4532 32.6046 32.4532 32.6269 32.4332C32.6603 32.4043 32.6803 32.3954 32.7226 32.3887C32.7582 32.3842 32.7716 32.3753 32.7894 32.3509C32.8094 32.3219 32.8651 32.342 32.8873 32.3019C32.8962 32.2863 32.8984 32.2663 32.9073 32.2507C32.9207 32.2284 32.9452 32.2173 32.9585 32.1951C32.983 32.1594 32.9585 32.1283 32.9407 32.0971C32.9341 32.086 32.9496 32.0815 32.9563 32.0749C32.9741 32.0615 32.963 32.0393 32.9563 32.0237C32.9407 31.9836 32.9452 31.9369 32.9897 31.9124C32.9808 31.9168 32.983 31.9725 32.983 31.9814C32.983 32.0326 33.0053 32.0059 33.0387 32.0126C33.0498 32.0148 32.9897 32.0593 32.9897 32.0704C32.9897 32.1238 33.0253 32.1238 33.0609 32.1283C33.0453 32.1261 33.0364 32.1617 33.0364 32.1728C33.0364 32.1973 33.0364 32.1928 33.0209 32.2062C32.9964 32.224 32.9941 32.2463 32.9986 32.2752C33.003 32.3108 33.0275 32.3108 33.0431 32.3375C33.052 32.3553 33.0275 32.3664 33.0498 32.3909C33.0787 32.4221 33.0654 32.4443 33.0809 32.48C33.0899 32.5 33.0965 32.5133 33.0965 32.5356C33.0965 32.5712 33.0431 32.5846 33.0387 32.6224C33.032 32.6691 33.0364 32.7203 33.0053 32.7604C32.9608 32.8205 33.0476 32.8494 33.0253 32.9006C33.0097 32.9362 33.032 32.9407 33.0409 32.9718C33.0476 32.9963 33.0342 33.0297 33.0342 33.0564C33.0342 33.092 33.0542 33.121 33.0565 33.1521C33.0587 33.1944 33.0298 33.1989 33.0609 33.2389C33.0787 33.259 33.052 33.2768 33.0476 33.2968C33.0431 33.3191 33.0743 33.3435 33.0899 33.3547C33.1143 33.368 33.0832 33.3992 33.0965 33.4237C33.1099 33.4459 33.1344 33.4459 33.1366 33.4749C33.1433 33.5216 33.1722 33.555 33.1744 33.6084C33.1744 33.6173 33.1588 33.6663 33.1633 33.6707C33.1967 33.6974 33.1811 33.6974 33.19 33.7397C33.1945 33.7442 33.2011 33.7486 33.2056 33.7531C33.2078 33.7686 33.1967 33.7909 33.1989 33.8087C33.1989 33.8443 33.2078 33.8799 33.21 33.9155C33.2167 33.9979 33.2189 34.0535 33.259 34.1292C33.2724 34.1582 33.2746 34.1893 33.2879 34.2182C33.2946 34.2294 33.3146 34.2895 33.3258 34.2939C33.3436 34.2984 33.348 34.334 33.3525 34.3518C33.3569 34.3651 33.3547 34.3874 33.3703 34.3941C33.3792 34.3985 33.4015 34.3941 33.4081 34.4008C33.4015 34.3919 33.3369 34.4275 33.397 34.4609C33.4348 34.4831 33.4282 34.541 33.4549 34.5744C33.4682 34.5899 33.4883 34.5788 33.4905 34.6033C33.4905 34.6122 33.486 34.6478 33.4949 34.6523C33.5083 34.6589 33.5461 34.6567 33.5483 34.6767C33.5483 34.6968 33.535 34.7079 33.5483 34.7279C33.5751 34.7635 33.5995 34.7925 33.6084 34.8414C33.604 34.8504 33.5995 34.857 33.5973 34.8659C33.5973 34.8837 33.6107 34.8993 33.6196 34.9149C33.6374 34.9416 33.6396 34.9683 33.653 34.9973C33.6641 35.024 33.6797 35.0395 33.6774 35.0707C33.6774 35.1041 33.6774 35.1375 33.6819 35.1709C33.6863 35.2065 33.6819 35.2488 33.6908 35.2844C33.6952 35.3044 33.7197 35.3089 33.7264 35.3267C33.7353 35.3511 33.7153 35.3801 33.7442 35.3934C33.7553 35.4001 33.7642 35.4313 33.7665 35.4424C33.7798 35.4891 33.7954 35.5381 33.8154 35.5826C33.8243 35.6026 33.8355 35.6227 33.851 35.6383C33.8666 35.6538 33.8978 35.6472 33.9089 35.665C33.9356 35.705 33.9646 35.7362 33.9957 35.7696C34.0113 35.7852 34.0068 35.8185 34.018 35.8363C34.0313 35.8631 34.038 35.8786 34.058 35.9009C34.0781 35.9232 34.0647 35.9543 34.0848 35.9743C34.1048 35.9966 34.107 36.0211 34.1092 36.05C34.1115 36.0723 34.1293 36.0812 34.1337 36.1034C34.1359 36.1235 34.127 36.1569 34.1404 36.1769C34.1515 36.1947 34.1582 36.2281 34.1782 36.2392C34.1983 36.2481 34.1849 36.2882 34.196 36.2926C34.2027 36.2948 34.2094 36.2815 34.2161 36.2815C34.225 36.2815 34.2317 36.3038 34.2361 36.3104C34.2361 36.3082 34.2984 36.3817 34.2762 36.3772C34.2517 36.3727 34.245 36.3305 34.2161 36.3305C34.1916 36.3305 34.2161 36.3906 34.2205 36.4039C34.2517 36.4662 34.2539 36.5241 34.2673 36.5909C34.2739 36.6198 34.2962 36.6354 34.3029 36.6599C34.3118 36.6933 34.2873 36.7222 34.3185 36.7489C34.3452 36.7689 34.3452 36.7979 34.3563 36.8268C34.3719 36.8646 34.4186 36.8758 34.4431 36.9069C34.4631 36.9314 34.4832 36.9715 34.521 36.9648C34.5566 36.9581 34.541 36.9893 34.5566 37.0138C34.5967 37.0783 34.6545 37.0494 34.7013 37.1006C34.7636 37.1718 34.797 37.1117 34.8459 37.0694C34.8905 37.0316 34.9483 37.0071 35.004 36.9915C35.044 36.9826 35.0463 36.8847 35.0418 36.8513C35.0396 36.8313 35.0374 36.7979 35.0463 36.7778C35.0529 36.76 35.1041 36.7177 35.1264 36.7244C35.1731 36.7378 35.1887 36.72 35.2288 36.7088C35.2577 36.7022 35.2866 36.7066 35.3178 36.6977C35.3334 36.6933 35.3823 36.6955 35.3913 36.6799C35.3957 36.671 35.418 36.6621 35.4046 36.651C35.3913 36.6376 35.3823 36.622 35.3645 36.6087C35.2955 36.553 35.3534 36.4996 35.3935 36.4484C35.4135 36.4239 35.438 36.395 35.4647 36.375C35.4758 36.3683 35.4313 36.3416 35.4536 36.3127C35.4736 36.2882 35.4936 36.2726 35.5248 36.2837C35.5649 36.2993 35.5871 36.3015 35.6316 36.2948C35.6539 36.2926 35.7095 36.2859 35.7207 36.2637C35.7273 36.2503 35.714 36.2459 35.7051 36.2392C35.6917 36.2281 35.6962 36.2014 35.6962 36.1858C35.6962 36.1591 35.7051 36.119 35.6962 36.0968C35.685 36.07 35.6761 36.0322 35.685 36.0033C35.694 35.9677 35.694 35.9365 35.6784 35.9031C35.665 35.8786 35.6405 35.843 35.6695 35.823C35.7095 35.7941 35.6561 35.7785 35.6628 35.7495C35.6695 35.7206 35.6806 35.6917 35.6895 35.6627C35.7029 35.6227 35.7029 35.6138 35.7362 35.5871C35.7451 35.5804 35.8075 35.5247 35.8075 35.5114C35.8075 35.4891 35.7585 35.4691 35.7585 35.4491C35.7585 35.4379 35.8253 35.4179 35.8364 35.4068C35.8564 35.3868 35.8653 35.3467 35.8809 35.3222C35.9054 35.2888 35.8943 35.2488 35.892 35.2087C35.8898 35.1709 35.8742 35.1397 35.8408 35.1197C35.8275 35.113 35.7897 35.0974 35.7963 35.0774C35.8119 35.0262 35.8987 35.1508 35.8698 35.0596C35.8564 35.0151 35.8408 34.9705 35.8208 34.9283C35.8097 34.9038 35.7763 34.8637 35.7986 34.8348C35.823 34.8058 35.8453 34.8036 35.8386 34.7658C35.8275 34.7035 35.7941 34.65 35.7808 34.5877C35.7674 34.5187 35.7808 34.4764 35.8253 34.4252C35.8386 34.4074 35.8609 34.3607 35.8631 34.3384C35.8631 34.3251 35.9009 34.3073 35.9098 34.3006C35.9321 34.2872 35.9499 34.285 35.9744 34.2806C36.0211 34.2717 36.0167 34.314 36.0478 34.3318C36.0901 34.3585 36.1369 34.2605 36.1547 34.2361C36.168 34.216 36.1725 34.1893 36.197 34.1826C36.2036 34.1826 36.2192 34.0958 36.2237 34.0802C36.2326 34.0491 36.2882 34.0647 36.3038 34.0802C36.3327 34.1092 36.3617 34.1114 36.4017 34.0958C36.4351 34.0825 36.4685 34.0624 36.5041 34.0491C36.5486 34.0313 36.5709 34.0179 36.6087 33.989C36.6288 33.9734 36.6176 33.9044 36.6132 33.8799C36.611 33.8621 36.5909 33.8488 36.5887 33.831C36.5842 33.7954 36.6154 33.8043 36.6377 33.7887C36.6555 33.7776 36.6755 33.7664 36.6933 33.7553C36.7133 33.7419 36.7245 33.7197 36.7445 33.7086C36.7846 33.6885 36.8268 33.6907 36.8669 33.6663C36.9047 33.6418 36.9693 33.6017 36.9715 33.5505C36.976 33.4904 36.9826 33.457 37.0405 33.4259C37.0917 33.3992 37.1518 33.388 37.1985 33.3547C37.2497 33.3191 37.272 33.2523 37.3121 33.2055C37.3299 33.1833 37.3454 33.1588 37.3699 33.141C37.39 33.1276 37.4144 33.1143 37.41 33.0853C37.4033 33.0275 37.4656 33.0275 37.4812 32.9763C37.4923 32.9407 37.5413 32.9296 37.568 32.9028C37.5747 32.8962 37.5925 32.8939 37.5969 32.8895C37.6014 32.885 37.6237 32.8294 37.6192 32.8272C37.6348 32.8316 37.6437 32.8472 37.6637 32.8472C37.6815 32.8472 37.6949 32.8338 37.7105 32.8294C37.7394 32.8227 37.7572 32.7938 37.7839 32.7827C37.8507 32.7537 37.9397 32.7381 37.9887 32.6803C38.0354 32.6224 38.1244 32.5779 38.1044 32.4889C38.1 32.4711 38.1378 32.4466 38.1489 32.4354C38.1734 32.4065 38.1779 32.362 38.1734 32.3264C38.169 32.2841 38.1311 32.2774 38.1111 32.244C38.0955 32.2151 38.1356 32.1773 38.1534 32.1572C38.1823 32.1283 38.2357 32.1439 38.2602 32.1149C38.2802 32.0927 38.3337 32.0994 38.3626 32.0927C38.3871 32.0882 38.416 32.0927 38.4227 32.0637C38.4294 32.0304 38.4294 32.0304 38.465 32.0192C38.485 32.0126 38.465 31.948 38.4895 31.948C38.5095 31.948 38.5028 32.0126 38.5095 32.0259C38.5139 32.0326 38.5785 32.0126 38.5896 32.0126C38.6275 32.0126 38.6408 31.997 38.6586 31.9658C38.6764 31.9369 38.7766 32.0126 38.8011 31.9525C38.8255 31.8924 38.8211 31.8412 38.7833 31.7878C38.7744 31.7744 38.7632 31.7321 38.761 31.7165C38.761 31.6876 38.7543 31.6809 38.7365 31.6498C38.7209 31.6208 38.741 31.5897 38.7365 31.5607C38.7298 31.514 38.7187 31.5095 38.7454 31.4695C38.7655 31.4383 38.7343 31.4027 38.7054 31.3938C38.672 31.3827 38.6675 31.3983 38.672 31.3515C38.6742 31.3114 38.6631 31.287 38.6297 31.2647C38.5941 31.2402 38.5918 31.2135 38.6186 31.1801C38.6475 31.149 38.643 31.1312 38.6408 31.0933C38.6408 31.0644 38.6519 31.0266 38.6408 30.9998C38.6208 30.9442 38.5206 30.9976 38.485 30.9665C38.4539 30.942 38.3893 30.844 38.4605 30.8351C38.5006 30.8307 38.5117 30.7973 38.5139 30.7595C38.5184 30.7172 38.5318 30.7283 38.5585 30.7105C38.5941 30.686 38.7187 30.7172 38.7009 30.6371C38.692 30.5925 38.6965 30.5836 38.6519 30.5725C38.6163 30.5636 38.6386 30.5169 38.6074 30.5057C38.5852 30.4968 38.5407 30.5347 38.5251 30.508C38.5073 30.479 38.4806 30.4701 38.465 30.4456C38.4539 30.4301 38.436 30.4301 38.4182 30.4234C38.3871 30.4123 38.4182 30.3655 38.4182 30.3499C38.4205 30.3054 38.4628 30.301 38.485 30.2676C38.5028 30.2431 38.5251 30.3121 38.534 30.3232C38.5496 30.3455 38.5852 30.3766 38.6119 30.3544C38.6297 30.3388 38.6119 30.301 38.6319 30.2898C38.6608 30.2743 38.7076 30.3277 38.7254 30.3455C38.7476 30.3677 38.7632 30.3677 38.7877 30.3811C38.8233 30.4011 38.8545 30.3811 38.8834 30.3566C38.9235 30.3232 38.9101 30.39 38.899 30.4078C38.879 30.4434 38.8945 30.4657 38.9235 30.4835C38.9279 30.4857 38.899 30.5681 38.8968 30.5859C38.8901 30.6237 38.919 30.6348 38.9524 30.646C38.9791 30.6549 39.0192 30.666 39.0459 30.6682C39.0837 30.6704 39.106 30.6727 39.1416 30.6838C39.1995 30.7038 39.2217 30.6437 39.2729 30.6571C39.3219 30.6704 39.3375 30.6571 39.3842 30.6482C39.422 30.6415 39.4599 30.6638 39.4999 30.6571C39.5445 30.6504 39.5712 30.6727 39.6179 30.6526C39.6557 30.6348 39.7025 30.6304 39.7336 30.6638C39.7247 30.6727 39.7158 30.6816 39.7092 30.6927C39.7025 30.7105 39.7203 30.7194 39.7203 30.7372C39.7203 30.7528 39.7114 30.7572 39.7069 30.7706C39.7003 30.7862 39.7069 30.8062 39.7003 30.824C39.6958 30.8396 39.6758 30.844 39.6602 30.8463C39.6224 30.8507 39.6402 30.8975 39.6379 30.9219C39.5712 30.8952 39.5333 30.9731 39.4821 30.9932C39.4198 31.0177 39.402 31.0978 39.3953 31.1601C39.3887 31.2424 39.4666 31.2981 39.4554 31.3738C39.4554 31.3849 39.4465 31.4762 39.4777 31.4628C39.5088 31.4472 39.5133 31.4717 39.5356 31.4361C39.5111 31.4739 39.5956 31.5073 39.6246 31.4917C39.6402 31.4828 39.6713 31.4672 39.6802 31.4539C39.6914 31.4383 39.6802 31.4072 39.6802 31.3893C39.6802 31.3626 39.6758 31.3293 39.6869 31.3048C39.6958 31.287 39.7136 31.2736 39.7158 31.2514C39.7158 31.2335 39.7158 31.218 39.7225 31.2002C39.7515 31.1512 39.7425 31.2002 39.7626 31.2135C39.8049 31.238 39.7893 31.2514 39.7915 31.2981C39.7915 31.3293 39.8249 31.3404 39.8383 31.3671C39.8494 31.3893 39.8316 31.4361 39.8204 31.4561C39.8026 31.494 39.836 31.5095 39.8583 31.534C39.8917 31.5741 39.8761 31.5874 39.8761 31.632C39.8761 31.6498 39.8939 31.6587 39.8939 31.6765C39.8939 31.6943 39.8872 31.7121 39.8872 31.7299C39.8894 31.7566 39.9139 31.7855 39.9162 31.8189C39.9206 31.859 39.905 31.879 39.9362 31.9079C39.9718 31.9413 39.9785 31.899 39.9896 31.8768C39.9896 31.8768 40.0519 31.9079 40.0608 31.9102C40.1009 31.9168 40.0964 31.859 40.1053 31.8389C40.1142 31.8145 40.1365 31.7944 40.1476 31.7699C40.1677 31.7277 40.1343 31.7099 40.1387 31.6742C40.1454 31.6075 40.1231 31.5518 40.112 31.4873C40.1076 31.4583 40.1009 31.4227 40.141 31.4183C40.1877 31.4138 40.1899 31.3893 40.201 31.3471C40.2122 31.307 40.1766 31.2914 40.1788 31.2558C40.181 31.218 40.2122 31.2068 40.2033 31.1623C40.1966 31.1267 40.1743 31.0822 40.1944 31.0466C40.2189 30.9998 40.2545 31.0622 40.2812 31.0599C40.2945 31.0599 40.2968 31.0444 40.3101 31.0421C40.3257 31.0399 40.3435 31.051 40.3591 31.051C40.388 31.0533 40.4258 31.0466 40.4392 31.0177C40.4503 30.9932 40.4325 30.9709 40.437 30.9464C40.4414 30.9219 40.4481 30.8663 40.4615 30.844C40.4704 30.8285 40.4904 30.8262 40.5015 30.8129C40.5126 30.7973 40.506 30.775 40.5104 30.7572C40.5193 30.7216 40.5527 30.6994 40.5594 30.6615C40.5638 30.6259 40.5638 30.5903 40.5683 30.5547C40.5705 30.5347 40.5149 30.5235 40.5127 30.4968C40.5104 30.4701 40.5661 30.4278 40.5839 30.4123C40.6106 30.3878 40.615 30.3522 40.6328 30.3232C40.6551 30.2921 40.6462 30.2453 40.6573 30.2097C40.6729 30.163 40.6573 30.1229 40.644 30.0762C40.6351 30.0472 40.6084 30.0005 40.644 29.9782C40.6685 29.9627 40.6974 29.9738 40.7219 29.9538C40.7464 29.9337 40.7619 29.9026 40.7753 29.8736C40.7931 29.8358 40.8109 29.8158 40.8421 29.789C40.8688 29.7646 40.8754 29.7267 40.9022 29.7022C40.9266 29.6822 40.9511 29.6844 40.9734 29.6644C40.9934 29.6466 41.0112 29.6644 41.0335 29.6533C41.078 29.631 41.0869 29.6199 41.1158 29.66C41.1381 29.6911 41.1603 29.7022 41.1982 29.7067C41.2405 29.7111 41.2405 29.7067 41.2427 29.6666C41.2427 29.6132 41.1603 29.5932 41.1448 29.5353C41.1336 29.4864 41.1581 29.4908 41.1893 29.4708C41.216 29.4552 41.2338 29.4196 41.256 29.3973C41.285 29.3706 41.2939 29.3573 41.2716 29.3239C41.2649 29.315 41.2471 29.3083 41.2449 29.2972C41.2405 29.2816 41.2672 29.2616 41.2605 29.2482C41.256 29.2415 41.2093 29.2371 41.1982 29.2326C41.1715 29.2215 41.147 29.2148 41.1203 29.2326C41.0913 29.2526 41.0602 29.2037 41.0335 29.197C41.0068 29.1881 40.9622 29.2193 40.9378 29.2282C40.8977 29.2393 40.9244 29.1992 40.9378 29.1859C40.96 29.1636 40.9845 29.1391 41.0001 29.1124C41.0112 29.0924 41.0201 29.0635 40.989 29.059C40.9578 29.0546 40.9645 29.0167 40.9622 28.99C40.96 28.9678 40.9022 28.97 40.9022 28.9967C40.9022 29.0123 40.9088 29.0167 40.8932 29.0256C40.8843 29.0301 40.8599 29.0323 40.8621 29.0145C40.8665 28.9767 40.8732 28.9767 40.9044 28.9477C40.9311 28.921 40.9222 28.8854 40.8866 28.881C40.8532 28.8765 40.8665 28.881 40.8465 28.8565C40.8109 28.812 40.7909 28.8253 40.7553 28.8542C40.7241 28.8787 40.6952 28.9032 40.6685 28.9321C40.6529 28.95 40.6484 29.0056 40.6217 29.0078C40.5772 29.0145 40.5661 29.0011 40.5282 28.9833C40.5015 28.97 40.4793 28.9878 40.4503 28.97C40.4303 28.9589 40.388 28.95 40.3858 28.9255C40.3813 28.8787 40.3435 28.9455 40.3368 28.9544C40.3168 28.9811 40.2856 28.99 40.2589 29.01C40.2411 29.0256 40.2456 29.0635 40.23 29.0813C40.2055 29.1124 40.1832 29.1347 40.1654 29.1703C40.1565 29.1903 40.1009 29.1881 40.0831 29.1926C40.0653 29.197 40.0631 29.217 40.0497 29.217C40.023 29.2126 39.9941 29.1992 39.9673 29.217C39.9495 29.2282 39.9406 29.2705 39.9295 29.2883C39.9206 29.3038 39.9451 29.335 39.9295 29.3484C39.9095 29.3617 39.8761 29.3573 39.8538 29.3684C39.836 29.3773 39.8138 29.3995 39.8026 29.4151C39.7893 29.4329 39.7604 29.4396 39.7581 29.4619C39.7559 29.4819 39.7871 29.5086 39.7715 29.5264C39.7559 29.542 39.7336 29.5598 39.7136 29.5709C39.698 29.5798 39.6825 29.5576 39.6646 29.5598C39.6246 29.5643 39.5578 29.5843 39.5267 29.6132C39.4999 29.6377 39.4554 29.5375 39.422 29.5798C39.4087 29.5954 39.4287 29.6332 39.422 29.6577C39.4154 29.68 39.4398 29.7 39.4376 29.7245C39.4376 29.7423 39.5511 29.7512 39.5712 29.7557C39.5934 29.7623 39.6246 29.7801 39.609 29.8069C39.5912 29.8402 39.6001 29.8603 39.5979 29.8959C39.5957 29.956 39.52 29.8959 39.4933 29.9448C39.4844 29.9627 39.4399 29.9449 39.4243 29.9582C39.3909 29.9805 39.3686 29.9716 39.3308 29.9738C39.2596 29.9738 39.2084 30.0361 39.1371 29.9849C39.086 29.9493 39.0592 29.9538 39.0081 29.9916C38.9969 30.0005 38.9836 30.0161 38.968 30.0138C38.9546 30.0116 38.9257 30.0005 38.9146 30.0161C38.9034 30.0339 38.9235 30.065 38.8856 30.0495C38.8678 30.0428 38.8589 30.0228 38.8589 30.0228C38.8456 30.0116 38.8189 30.0228 38.8055 30.0116C38.7988 30.0049 38.8055 29.996 38.7922 29.9894C38.7588 29.9671 38.7209 30.0294 38.7143 30.025C38.692 30.0161 38.6653 29.9805 38.643 29.9671C38.6186 29.9538 38.6052 29.9293 38.5918 29.9048C38.5807 29.8848 38.6252 29.8558 38.6141 29.8291C38.6074 29.8158 38.5963 29.8091 38.5829 29.8024C38.5696 29.7957 38.5785 29.7779 38.5651 29.769C38.5562 29.7623 38.5963 29.7022 38.5963 29.6867C38.5941 29.6466 38.5963 29.6377 38.574 29.6021C38.5384 29.5442 38.4961 29.542 38.4539 29.591C38.4271 29.6199 38.4271 29.6132 38.3893 29.6154C38.3782 29.6154 38.3337 29.6199 38.3292 29.6288C38.3136 29.6533 38.3181 29.6733 38.3337 29.6911C38.3648 29.7267 38.3359 29.7334 38.3203 29.7646C38.3025 29.7957 38.3003 29.8224 38.2958 29.858C38.2914 29.887 38.2736 29.9092 38.2713 29.9382C38.2691 29.9738 38.3047 30.0138 38.3225 30.0406C38.3426 30.0717 38.347 30.1296 38.3381 30.1652C38.3381 30.1696 38.3381 30.2297 38.3181 30.2119C38.3003 30.1941 38.2736 30.2008 38.2535 30.2075C38.2046 30.2231 38.1534 30.2297 38.1022 30.2275C38.0599 30.2275 38.0332 30.183 37.9909 30.1786C37.9642 30.1741 37.9486 30.2008 37.9241 30.2119C37.8952 30.2231 37.8507 30.2164 37.824 30.2008C37.8017 30.1875 37.7928 30.1496 37.7617 30.1541C37.7461 30.1541 37.7394 30.1719 37.7216 30.1696C37.7038 30.1674 37.6904 30.1496 37.6726 30.1452C37.6415 30.1363 37.6259 30.1696 37.5992 30.1407C37.5791 30.1185 37.5791 30.0895 37.5458 30.0828C37.5124 30.0762 37.5057 30.1118 37.4768 30.114C37.4411 30.1185 37.4322 30.1051 37.4055 30.0806C37.3811 30.0584 37.2653 30.0495 37.2609 30.0205C37.2542 29.9805 37.2586 29.956 37.2342 29.9204C37.2097 29.8825 37.1852 29.9048 37.1451 29.9003C37.1206 29.8981 37.1206 29.867 37.1051 29.8558C37.0917 29.8469 37.045 29.8425 37.0294 29.8469C36.9938 29.8558 36.9648 29.8736 36.9337 29.8937C36.9404 29.8892 36.8803 29.8714 36.8758 29.8714C36.8602 29.8714 36.8358 29.8759 36.8268 29.8937C36.8224 29.9003 36.8224 29.9181 36.8157 29.9226C36.8179 29.9226 36.7645 29.8981 36.7556 29.8959C36.7334 29.8959 36.6866 29.8981 36.6666 29.8914C36.6466 29.8848 36.6666 29.8469 36.6599 29.8336C36.6466 29.8002 36.5976 29.8024 36.5687 29.8113C36.5486 29.8158 36.5241 29.8469 36.5063 29.818C36.493 29.7935 36.4529 29.7735 36.4262 29.7646C36.3973 29.7534 36.3772 29.7423 36.3461 29.7579C36.2971 29.7846 36.3038 29.7356 36.2682 29.7223C36.237 29.7111 36.2036 29.7134 36.197 29.6755C36.1947 29.6622 36.1947 29.6444 36.1836 29.6355C36.1658 29.6199 36.1591 29.6399 36.1636 29.6533C36.1013 29.631 36.099 29.5531 36.0278 29.5464C35.9655 29.5398 35.9277 29.5375 35.8965 29.4797C35.8609 29.4174 35.8631 29.4774 35.8342 29.4864C35.8164 29.493 35.7318 29.4329 35.7184 29.4196C35.6962 29.3995 35.7006 29.3773 35.7273 29.3684C35.7607 29.3595 35.7474 29.3395 35.7496 29.3127C35.7518 29.2883 35.7763 29.2794 35.7785 29.2526C35.7808 29.2215 35.7607 29.197 35.7785 29.1681C35.7941 29.1414 35.8097 29.1369 35.8119 29.1013C35.8119 29.0857 35.8164 29.0701 35.8297 29.0612C35.8498 29.0457 35.8609 29.0301 35.872 29.01C35.8876 28.9856 35.9232 28.9922 35.9366 28.9633C35.9521 28.9321 36.0167 28.8765 35.9722 28.852C35.941 28.8364 35.941 28.8075 35.9232 28.7852C35.8965 28.7519 35.8854 28.7763 35.8498 28.7719C35.8186 28.7697 35.8275 28.7341 35.7941 28.7519C35.7696 28.7652 35.7652 28.7252 35.7629 28.7096C35.7563 28.6717 35.7162 28.6094 35.6695 28.6183C35.6428 28.6228 35.6339 28.5916 35.6094 28.5872C35.5893 28.5827 35.5693 28.5827 35.5493 28.5805C35.5114 28.5783 35.4647 28.5694 35.458 28.5248C35.4536 28.4781 35.438 28.4202 35.3846 28.4069C35.3423 28.3957 35.3111 28.4825 35.3156 28.4825C35.2955 28.4759 35.2889 28.4581 35.2866 28.438C35.2844 28.4225 35.2666 28.4158 35.2644 28.4024C35.2622 28.3713 35.3312 28.3557 35.2911 28.3178C35.2533 28.2822 35.2866 28.2399 35.28 28.1999C35.28 28.1843 35.251 28.1709 35.2444 28.1576C35.2288 28.1309 35.2399 28.1353 35.2488 28.1175C35.2533 28.1086 35.1976 28.1019 35.1976 28.093C35.1954 28.0663 35.1976 28.0374 35.1976 28.0107C35.1976 27.9862 35.2043 27.9395 35.2399 27.9595C35.28 27.9818 35.2666 27.9973 35.2822 28.0396C35.2911 28.0641 35.3267 28.1019 35.3556 28.0908C35.4024 28.073 35.3779 28.0708 35.3823 28.033C35.3846 28.0107 35.4269 28.0196 35.4358 27.9973C35.4424 27.9773 35.4936 27.9884 35.5114 27.9795C35.5582 27.9551 35.576 27.9261 35.5471 27.8727C35.5203 27.8215 35.438 27.8082 35.4803 27.7369C35.5159 27.6768 35.4224 27.6524 35.3734 27.6546C35.3289 27.6546 35.3245 27.6479 35.3289 27.5967C35.3289 27.5789 35.3289 27.5589 35.3378 27.5433C35.349 27.5233 35.3734 27.5166 35.3823 27.4966C35.3846 27.4899 35.3668 27.4609 35.3645 27.4543C35.3579 27.4276 35.3378 27.4543 35.32 27.4387C35.3044 27.4231 35.3044 27.412 35.32 27.3942C35.349 27.3563 35.3823 27.3853 35.4224 27.4031C35.4358 27.4097 35.4914 27.4342 35.4914 27.3986C35.4914 27.3719 35.5226 27.3675 35.5315 27.343C35.5426 27.314 35.5448 27.2829 35.5515 27.2539C35.556 27.2384 35.6027 27.2317 35.6138 27.2272C35.6539 27.2161 35.6094 27.1783 35.6361 27.1605C35.6583 27.1449 35.685 27.1605 35.7051 27.1449C35.7362 27.1182 35.7251 27.1048 35.7229 27.0714C35.7229 27.0425 35.7429 27.0113 35.7474 26.9802C35.7518 26.9512 35.7852 26.9379 35.7963 26.9112C35.8052 26.8912 35.803 26.8377 35.7963 26.8155C35.7852 26.7865 35.7362 26.7687 35.7162 26.7509C35.6761 26.7175 35.6784 26.6997 35.6205 26.6975C35.5916 26.6975 35.5471 26.6819 35.527 26.6597C35.5137 26.6463 35.507 26.6129 35.4825 26.6241C35.4491 26.6396 35.4224 26.6686 35.3846 26.6775C35.3668 26.6819 35.2955 26.6552 35.2911 26.6686C35.2733 26.7309 35.1731 26.6842 35.1264 26.7109C35.0997 26.7265 35.1019 26.7643 35.0752 26.7799C35.0507 26.7932 34.9906 26.811 34.9639 26.811C34.9506 26.811 34.9417 26.8177 34.9328 26.8288C34.9261 26.8377 34.9038 26.8288 34.8949 26.8288C34.8615 26.8288 34.8704 26.7932 34.8615 26.7687C34.837 26.6997 34.7925 26.6953 34.728 26.7042C34.6501 26.7131 34.6434 26.6619 34.6256 26.5951C34.6167 26.5662 34.6078 26.5595 34.5789 26.5462C34.5455 26.5328 34.5433 26.4861 34.5099 26.4794C34.4743 26.4727 34.4475 26.4683 34.4142 26.4505C34.3785 26.4327 34.3897 26.4015 34.3652 26.3815C34.3229 26.3459 34.2962 26.3258 34.2717 26.2769C34.2561 26.2479 34.2561 26.2568 34.2294 26.2435C34.2072 26.2323 34.2294 26.1967 34.2049 26.19C34.1649 26.1767 34.176 26.1945 34.1404 26.2079C34.1204 26.2145 34.0937 26.1834 34.087 26.2079C34.0781 26.2368 34.038 26.2145 34.0291 26.2012C34.0158 26.1811 34.0002 26.1633 33.9801 26.1856C33.969 26.199 33.9557 26.2234 33.9334 26.219C33.9 26.2123 33.9045 26.1834 33.8666 26.2079C33.8488 26.2212 33.8043 26.2301 33.7954 26.2457C33.7776 26.2746 33.742 26.239 33.7197 26.239C33.6774 26.2346 33.7175 26.2924 33.6752 26.3058C33.6507 26.3125 33.6329 26.2969 33.6107 26.288C33.5706 26.2724 33.5372 26.3102 33.4972 26.2969C33.4415 26.2791 33.4749 26.3837 33.4259 26.3792C33.4059 26.3792 33.3859 26.397 33.3925 26.4171C33.4037 26.4638 33.3636 26.4371 33.3369 26.4616C33.3102 26.4883 33.3035 26.4816 33.2724 26.4927C33.2501 26.5017 33.2657 26.564 33.2746 26.5773C33.2991 26.6152 33.259 26.6819 33.3369 26.673C33.3681 26.6686 33.4126 26.6641 33.4437 26.673C33.4549 26.6753 33.4638 26.6886 33.4705 26.6953C33.4883 26.7198 33.5127 26.7331 33.5283 26.7554C33.5372 26.7687 33.5461 26.7888 33.5573 26.7999C33.5906 26.8377 33.5995 26.791 33.624 26.7821C33.6285 26.7821 33.6396 26.8756 33.653 26.8823C33.6708 26.8934 33.6841 26.9134 33.6997 26.929C33.7153 26.9446 33.7464 26.9334 33.7642 26.9446C33.7798 26.9535 33.7731 26.9802 33.7598 26.9869C33.7353 27.0002 33.7375 27.0091 33.7242 27.0291C33.6997 27.0648 33.6396 27.0381 33.6196 27.0826C33.6107 27.1004 33.5239 27.1516 33.5239 27.1538C33.5261 27.1716 33.5417 27.1805 33.5372 27.205C33.535 27.225 33.5239 27.2495 33.5372 27.2695C33.555 27.294 33.5728 27.2851 33.5617 27.3207C33.5528 27.3497 33.5239 27.3408 33.5328 27.3764C33.5394 27.4097 33.5684 27.4075 33.5706 27.4387C33.5728 27.4743 33.5706 27.5099 33.5951 27.5388C33.5751 27.5166 33.5684 27.6145 33.5684 27.6234C33.5684 27.6679 33.5283 27.708 33.5706 27.7503C33.6285 27.8059 33.7019 27.7881 33.762 27.8304C33.7821 27.8438 33.7999 27.8927 33.8266 27.8905C33.8377 27.8905 33.9022 27.8816 33.9089 27.8927C33.9134 27.8994 33.8956 27.9417 33.9 27.9573C33.9067 27.9773 33.9334 27.9973 33.9512 28.0018C33.9757 28.0062 34.0069 28.0107 34.0336 28.0107C34.0558 28.0107 34.0491 28.0352 34.0758 28.033V28.0263Z" fill="#E2362D"/>
<defs>
<linearGradient id="paint0_linear_624_1351" x1="39.4532" y1="62.3827" x2="74.4417" y2="27.3942" gradientUnits="userSpaceOnUse">
<stop stop-color="white"/>
<stop offset="0.13" stop-color="#939393"/>
<stop offset="0.29" stop-color="#939393"/>
<stop offset="0.53" stop-color="#58595B"/>
<stop offset="0.8" stop-color="#D6D6D6"/>
<stop offset="1"/>
</linearGradient>
</defs>
</svg>
