<?xml version="1.0" encoding="UTF-8"?>
<svg id="Layer_1" data-name="Layer 1" xmlns="http://www.w3.org/2000/svg" version="1.1" xmlns:xlink="http://www.w3.org/1999/xlink" viewBox="0 0 434 116.7">
  <defs>
    <style>
      .cls-1 {
        fill: url(#linear-gradient);
      }

      .cls-1, .cls-2, .cls-3, .cls-4, .cls-5, .cls-6, .cls-7, .cls-8 {
        stroke-width: 0px;
      }

      .cls-2 {
        fill: #f15a29;
      }

      .cls-3 {
        opacity: .8;
      }

      .cls-3, .cls-7 {
        fill: #f7941d;
      }

      .cls-3, .cls-9 {
        isolation: isolate;
      }

      .cls-4 {
        fill: url(#linear-gradient-2);
      }

      .cls-5 {
        fill: url(#linear-gradient-3);
      }

      .cls-6 {
        fill: url(#radial-gradient);
      }

      .cls-9 {
        fill: none;
        opacity: .5;
        stroke: #f7941d;
        stroke-miterlimit: 10;
        stroke-width: 1px;
      }

      .cls-8 {
        fill: url(#linear-gradient-4);
      }
    </style>
    <linearGradient id="linear-gradient" x1="-34.3" y1="311" x2="54" y2="421.7" gradientTransform="translate(51.6 -324.8) rotate(1.1)" gradientUnits="userSpaceOnUse">
      <stop offset=".3" stop-color="#bf1000"/>
      <stop offset=".3" stop-color="#c31b03"/>
      <stop offset=".4" stop-color="#ce3a0a"/>
      <stop offset=".5" stop-color="#df6b15"/>
      <stop offset=".7" stop-color="#f7ae25"/>
      <stop offset=".7" stop-color="#ffc42a"/>
    </linearGradient>
    <linearGradient id="linear-gradient-2" x1="-27.4" y1="338.4" x2="78" y2="421.6" gradientTransform="translate(37.1 -324.7) rotate(1.1)" gradientUnits="userSpaceOnUse">
      <stop offset="0" stop-color="#ffe200"/>
      <stop offset=".2" stop-color="#fdb500"/>
      <stop offset=".4" stop-color="#e96e00"/>
      <stop offset="1" stop-color="#d80000"/>
    </linearGradient>
    <radialGradient id="radial-gradient" cx="19.5" cy="2747" fx="19.5" fy="2747" r="36.5" gradientTransform="translate(-23.5 2788.6) rotate(1.1) scale(1 -1)" gradientUnits="userSpaceOnUse">
      <stop offset=".7" stop-color="#fff" stop-opacity=".5"/>
      <stop offset="1" stop-color="#fff" stop-opacity="0"/>
    </radialGradient>
    <linearGradient id="linear-gradient-3" x1="49.4" y1="2679.2" x2="49.4" y2="2730.8" gradientTransform="translate(-23.5 2788.6) rotate(1.1) scale(1 -1)" gradientUnits="userSpaceOnUse">
      <stop offset=".5" stop-color="#fff" stop-opacity=".5"/>
      <stop offset="1" stop-color="#fff" stop-opacity="0"/>
    </linearGradient>
    <linearGradient id="linear-gradient-4" x1="18.6" y1="312.8" x2="18.6" y2="400.2" gradientTransform="translate(37.1 -324.7) rotate(1.1)" gradientUnits="userSpaceOnUse">
      <stop offset=".5" stop-color="#fff" stop-opacity=".5"/>
      <stop offset="1" stop-color="#fff" stop-opacity="0"/>
    </linearGradient>
  </defs>
  <g>
    <path class="cls-2" d="M137.5,79.2v-36.7h9v14.1h15.1v-14.1h9v36.7h-9v-14.4h-15.1v14.4h-9Z"/>
    <path class="cls-2" d="M192.9,79.8c-3.4,0-6.3-.7-8.8-2-2.5-1.3-4.4-3.3-5.8-5.7-1.4-2.5-2-5.4-2-8.8v-20.7h9v20.7c0,1.6.3,3.1.9,4.3.6,1.2,1.5,2.2,2.7,2.9,1.2.7,2.5,1,4.1,1s2.9-.3,4.1-1,2-1.6,2.6-2.9c.6-1.2.9-2.7.9-4.3v-20.7h9v20.7c0,3.3-.7,6.2-2.1,8.7-1.4,2.5-3.3,4.4-5.8,5.8-2.5,1.4-5.5,2.1-8.8,2.1h0Z"/>
    <path class="cls-2" d="M215.2,79.2v-36.7h8.5l16.7,21.3v-21.3h8.5v36.7h-8l-17.2-22.1v22.1h-8.5Z"/>
    <path class="cls-2" d="M264.8,79.2v-28.7h-12v-8h33v8h-12v28.7h-9Z"/>
    <path class="cls-2" d="M303.9,79.8c-3,0-5.9-.5-8.8-1.6s-5.5-2.6-7.8-4.5l5-6.6c2.2,1.8,4.3,3.1,6.2,3.9,1.9.8,3.9,1.2,6,1.2s2.6-.1,3.6-.4c1-.3,1.7-.7,2.3-1.2.5-.5.8-1.2.8-1.9s-.4-1.8-1.2-2.4-2.1-1-3.9-1.3l-8.1-1.4c-3-.5-5.3-1.7-6.9-3.4s-2.4-4-2.4-6.7.6-4.4,1.8-6.1c1.2-1.7,2.9-3,5.2-3.9s4.9-1.4,8-1.4,5.5.5,8.2,1.4,5.2,2.2,7.2,3.9l-4.8,6.7c-3.8-2.9-7.5-4.4-11.3-4.4s-2.3.1-3.2.4-1.6.6-2.1,1.1c-.5.5-.7,1-.7,1.7s.3,1.6,1,2.1c.7.5,1.8.9,3.3,1.2l7.6,1.3c3.5.6,6.2,1.7,8,3.5s2.8,4.1,2.8,6.9-.6,4.6-1.9,6.4c-1.3,1.8-3.2,3.2-5.6,4.2-2.4,1-5.3,1.5-8.6,1.5h0Z"/>
    <path class="cls-2" d="M337.4,79.8c-3.9,0-7.1-1-9.8-2.9-2.6-1.9-4.5-4.7-5.6-8.4l8.3-3.1c.7,2.1,1.6,3.7,2.8,4.7s2.6,1.5,4.4,1.5,3.6-.6,4.8-1.9c1.2-1.3,1.8-3,1.8-5.1v-22h9v22.3c0,3-.7,5.6-2,7.8-1.3,2.2-3.1,4-5.5,5.2-2.3,1.3-5.1,1.9-8.2,1.9h0Z"/>
    <path class="cls-2" d="M377,79.8c-2.8,0-5.3-.5-7.7-1.4-2.4-1-4.5-2.3-6.2-4-1.8-1.7-3.2-3.7-4.2-6-1-2.3-1.5-4.8-1.5-7.4s.5-5.1,1.5-7.4c1-2.3,2.4-4.3,4.2-6,1.8-1.7,3.9-3.1,6.2-4,2.4-1,4.9-1.4,7.7-1.4s5.3.5,7.7,1.4c2.4,1,4.5,2.3,6.2,4,1.8,1.7,3.2,3.7,4.2,6,1,2.3,1.5,4.8,1.5,7.4s-.5,5.1-1.5,7.4c-1,2.3-2.4,4.3-4.2,6-1.8,1.7-3.9,3.1-6.2,4-2.4,1-5,1.4-7.7,1.4ZM377,71.5c1.5,0,2.8-.3,4.1-.8,1.3-.5,2.3-1.3,3.3-2.2.9-.9,1.7-2.1,2.2-3.4s.8-2.7.8-4.2-.3-3-.8-4.3c-.5-1.3-1.2-2.4-2.2-3.4-.9-.9-2-1.7-3.3-2.2-1.3-.5-2.6-.8-4.1-.8s-2.8.3-4.1.8c-1.3.5-2.3,1.3-3.3,2.2-.9.9-1.7,2.1-2.2,3.4-.5,1.3-.8,2.7-.8,4.3s.3,2.9.8,4.2c.5,1.3,1.2,2.4,2.2,3.4.9.9,2,1.7,3.3,2.2,1.3.5,2.6.8,4.1.8Z"/>
    <path class="cls-2" d="M401.4,79.2v-36.7h18.2c2.5,0,4.7.4,6.6,1.3,1.9.9,3.4,2.1,4.5,3.6,1.1,1.6,1.6,3.4,1.6,5.4s-.4,2.9-1.1,4.2c-.8,1.3-1.8,2.4-3.1,3.3,1.6.9,2.9,2,3.9,3.4,1,1.4,1.4,2.9,1.4,4.6s-.5,4-1.6,5.6-2.6,2.9-4.6,3.8c-2,.9-4.2,1.4-6.8,1.4h-19.1s0,0,0,0ZM410.4,57.2h8.6c1.3,0,2.4-.3,3.2-1s1.2-1.5,1.2-2.6-.4-2-1.2-2.6-1.8-1-3.2-1h-8.6v7.2h0ZM410.4,71.8h9.4c1.4,0,2.5-.3,3.3-1,.8-.7,1.2-1.6,1.2-2.8s-.4-2.1-1.2-2.8c-.8-.7-1.9-1-3.3-1h-9.4v7.8h0Z"/>
  </g>
  <g>
    <g>
      <g>
        <path class="cls-1" d="M108.9,34.5c-1.2-3.4-2.8-6.6-4.7-9.6-2-3-4.3-5.7-6.9-8.2-5.2-4.9-11.4-8.7-18-11-3.3-1.2-6.7-2-10.2-2.5-3.4-.5-6.9-.6-10.3-.4-6.8.4-13.5,2.3-19.5,5.3-6,3-11.2,7.2-15.3,12.1-2.1,2.4-3.9,5.1-5.5,7.8-1.6,2.7-2.8,5.6-3.8,8.6-1,2.9-1.7,6-2.1,9-.4,3-.5,6.1-.4,9.1.3,6,1.7,11.9,4.1,17.3,2.4,5.4,5.8,10.3,10,14.5,4.2,4.1,9.1,7.6,14.5,10,5.4,2.5,11.3,4,17.3,4.5,6,.5,12.3,0,18.4-1.8,6.1-1.7,11.9-4.7,17-8.8,5.1-4.1,9.5-9.3,12.6-15.3,3.2-6,5.1-12.8,5.5-19.7.4-6.9-.4-14.1-2.7-20.8h0ZM101.6,56.4c-.5,23.4-19.9,42.1-43.4,41.6-23.5-.5-42.2-19.8-41.8-43.3.5-23.4,19.9-42.1,43.4-41.6,23.5.5,42.2,19.8,41.8,43.3h0Z"/>
        <path class="cls-4" d="M112.7,77.2c-2.5,7.1-6.4,13.8-11.5,19.6-2.6,2.9-5.4,5.6-8.5,7.9-.8.6-1.6,1.2-2.4,1.7-.8.5-1.6,1.1-2.5,1.6-.9.5-1.7,1-2.6,1.5-.9.4-1.8.9-2.7,1.3-7.2,3.4-15.2,5.2-23.2,5.3h-3c-1,0-2-.2-3-.2-1,0-2-.2-3-.4-1-.1-2-.3-3-.5-1-.2-2-.4-2.9-.7-1-.2-1.9-.6-2.9-.8-1-.3-1.9-.6-2.9-1-.5-.2-.9-.4-1.4-.6l-1.4-.6c-3.7-1.6-7.2-3.6-10.5-5.9-3.3-2.3-6.3-5-9.1-7.9-2.7-2.9-5.2-6.1-7.2-9.5-2.1-3.4-3.8-7-5.2-10.7-1.3-3.7-2.3-7.6-2.9-11.4-.6-3.9-.7-7.8-.5-11.7.5-7.7,2.5-15.3,5.9-22.1,3.4-6.8,8.1-12.8,13.6-17.7,2.8-2.4,5.8-4.6,8.9-6.4.8-.4,1.6-.9,2.4-1.3.8-.4,1.6-.8,2.5-1.2.8-.4,1.7-.8,2.5-1.1.8-.3,1.7-.7,2.5-1,.9-.3,1.7-.6,2.6-.8.9-.2,1.7-.5,2.6-.7.9-.2,1.8-.4,2.6-.6.9-.2,1.8-.3,2.7-.5.9-.1,1.8-.2,2.7-.3.9,0,1.8-.2,2.7-.2h2.7c0,0,2.7,0,2.7,0,3.6.2,7.1.7,10.5,1.4,3.4.8,6.8,2,10,3.4,6.4,2.9,12.3,6.8,17.5,11.7,5.1,4.9,9.5,10.6,12.6,17.1,1.6,3.3,2.8,6.7,3.7,10.2.9,3.5,1.4,7.2,1.5,10.9.3,7.4-.8,14.8-3.3,22h0ZM108.2,45.6c-.4-3.2-1.1-6.4-2.2-9.5-2.1-6.2-5.4-12.1-9.9-17.1-4.5-4.9-10.2-8.8-16.4-11.3-6.2-2.5-12.9-3.6-19.6-3.4h-2.5c-.8.2-1.6.3-2.5.4-.8.1-1.6.3-2.4.4-.8.1-1.6.3-2.4.5-.8.2-1.6.4-2.4.6-.8.2-1.6.5-2.3.8-.8.3-1.5.6-2.3.9-.8.3-1.5.7-2.2,1-.7.3-1.5.7-2.2,1.1-.7.4-1.4.8-2.1,1.2-.7.4-1.4.9-2,1.3-.7.5-1.3.9-2,1.4-2.6,1.9-4.9,4.1-7,6.5-4.2,4.8-7.4,10.3-9.4,16.2-2,5.9-2.8,12-2.4,18,.2,3,.7,6,1.4,8.8.7,2.9,1.7,5.6,3,8.3,1.2,2.7,2.7,5.2,4.4,7.5,1.7,2.4,3.6,4.5,5.7,6.5,2.1,2,4.4,3.8,6.8,5.3,2.4,1.6,4.9,2.9,7.6,3.9,5.3,2.2,10.9,3.3,16.6,3.5,5.7.2,11.5-.6,17.1-2.4,5.5-1.8,10.9-4.7,15.6-8.5,4.7-3.9,8.7-8.7,11.5-14.3,2.9-5.5,4.5-11.8,4.9-18.2.2-3.2,0-6.4-.3-9.6h0Z"/>
        <path class="cls-6" d="M22.8,79.3s-15.4-27.9,2.8-53.9c0,0,18.8-26.1,60.3-14.9,0,0-22.9-10.9-46-1,0,0-25.3,10.5-26,42.6,0,0-.9,12.3,9,27.1Z"/>
        <path class="cls-5" d="M49.2,97.1s24.7,6.4,42.2-15.1c0,0,15.6-17,5.4-43l9.3-2.9s7.6,19.2-3,38.3c0,0-8.3,16.5-26.3,21.7,0,0-12.9,4.8-27.6,1h0Z"/>
      </g>
      <path class="cls-8" d="M29.1,8.3s-40.6,33.4-6.9,82.5c0,0,20.4,30.6,72.7,12.2,0,0-21,20.3-54.4,10.3,0,0-35.4-9.6-39.8-50.4,0,0-4.9-34.8,28.3-54.6h0Z"/>
    </g>
    <g>
      <path class="cls-7" d="M55.7,91.6c-2.8-.3-5.6-.9-8.2-1.8l1.3-3.7c2.3.8,4.8,1.4,7.3,1.6,1,0,1.9.2,2.9.2v4c-1.1,0-2.2,0-3.3-.2h0ZM60.3,91.7v-4c3.4,0,6.8-.8,10-2l1.4,3.7c-3.7,1.4-7.5,2.1-11.4,2.3ZM72.9,89l-1.5-3.7c3.2-1.3,6.1-3.2,8.7-5.5l2.6,3c-2.9,2.6-6.2,4.7-9.8,6.2h0ZM83.7,81.9l-2.8-2.9c2.5-2.4,4.6-5.2,6.1-8.3l3.5,1.8c-1.8,3.5-4.1,6.6-6.9,9.4ZM91.2,71.4l-3.6-1.7c1.4-3.1,2.4-6.5,2.7-10h0c0,0,3.9.3,3.9.3h0c-.4,4-1.4,7.8-3.1,11.3h0ZM90.4,58.5c.2-3.5-.1-6.9-1.1-10.3l3.8-1.1c1,3.8,1.4,7.7,1.2,11.6l-4-.2ZM89,47.2c-1-3.3-2.6-6.4-4.7-9.2l3.2-2.4c2.3,3.1,4.1,6.6,5.3,10.3l-3.8,1.2h0ZM30.2,37c-4.1,6.3-6.3,14-5.7,22.1,1,13.5,9.5,24.7,21,29.9l.7-1.6c-11-4.9-19.1-15.6-20-28.4-.6-7.8,1.5-15.1,5.5-21.1l-1.5-.8h0ZM36.1,40.2c-3.6,5.2-5.5,11.6-5,18.4.8,11,7.7,20.1,17.1,24.3l-.7,1.6c-10-4.4-17.2-14.1-18.1-25.7-.5-7.1,1.4-13.9,5.2-19.4l1.5.8h0ZM33.9,39c-3.8,5.6-5.8,12.5-5.3,19.8.9,11.9,8.3,21.8,18.5,26.3l-.7,1.6c-10.8-4.8-18.6-15.2-19.6-27.8-.6-7.6,1.5-14.8,5.5-20.7l1.5.8Z"/>
      <path class="cls-3" d="M55.1,81.5h0c-1.2-.2-2.5-.5-3.7-.9l1.1-3.3c1,.3,2.1.6,3.2.8l-.6,3.4ZM57,81.8l.3-3.5c1.1,0,2.2.1,3.3,0l.2,3.5c-1.2,0-2.5,0-3.8,0h0ZM49.7,80c-1.2-.5-2.3-1-3.4-1.7l1.8-3c.9.6,1.9,1,2.9,1.4l-1.3,3.2h0ZM62.7,81.7l-.5-3.4c1.1-.1,2.1-.4,3.2-.7l1,3.3c-1.2.4-2.4.6-3.7.8h0ZM44.7,77.3c-1-.7-2-1.5-2.9-2.4l2.4-2.5c.8.7,1.6,1.4,2.5,2.1l-2,2.8h0ZM68.1,80.3l-1.2-3.3c1-.4,2-.8,2.9-1.4l1.7,3c-1.1.6-2.2,1.1-3.4,1.6ZM40.5,73.5c-.8-.9-1.6-1.9-2.3-3l2.9-1.9c.6.9,1.3,1.8,2,2.6l-2.6,2.3ZM73.2,77.7l-1.9-2.9c.9-.6,1.8-1.3,2.6-2l2.3,2.6c-.9.8-1.9,1.6-3,2.3ZM37.2,69c-.6-1.1-1.1-2.2-1.6-3.4l3.3-1.2c.4,1,.8,2,1.4,2.9l-3,1.7ZM77.5,74.1l-2.5-2.4c.7-.8,1.4-1.6,2.1-2.5l2.8,2c-.7,1-1.5,2-2.4,2.9h0ZM35,63.8c-.4-1.2-.6-2.4-.8-3.7l3.4-.5c.1,1.1.4,2.1.7,3.2l-3.3,1ZM80.9,69.6l-3-1.8c.6-.9,1-1.9,1.5-2.9l3.2,1.3c-.5,1.2-1,2.3-1.7,3.4h0ZM34.1,58.2c0-1.2,0-2.5,0-3.8l3.5.3c0,1.1-.1,2.2,0,3.3l-3.5.2ZM83.3,64.4l-3.3-1.1c.3-1,.6-2.1.8-3.2h0s3.4.5,3.4.5h0c-.2,1.3-.5,2.5-.9,3.7h0ZM34.4,52.5h0c.2-1.3.5-2.5.9-3.7l3.3,1.1c-.3,1-.6,2.1-.8,3.1l-3.4-.5ZM80.9,58.6c0-1.1.1-2.2,0-3.2l3.5-.2c0,1.2,0,2.5,0,3.8l-3.5-.3h0ZM39.1,48.4l-3.2-1.3c.5-1.2,1-2.3,1.7-3.4l3,1.8c-.6.9-1,1.9-1.4,2.9h0ZM80.8,53.7c-.1-1.1-.4-2.1-.7-3.2l3.3-1c.4,1.2.6,2.4.8,3.7l-3.4.5h0ZM79.6,49c-.4-1-.8-2-1.4-2.9l3-1.7c.6,1.1,1.1,2.2,1.6,3.4l-3.2,1.2h0Z"/>
      <path class="cls-7" d="M52.5,71.3h0c-3.4-1.6-6.2-4.4-7.7-7.9l2-.9c1.3,3,3.7,5.4,6.7,6.8h0s-.5,1-.5,1l-.4,1h0s0,0,0,0ZM52.9,70.3h0s0,0,0,0ZM53.6,71.7l.8-2.1c3.1,1.2,6.4,1.2,9.5,0l.7,2.1c-3.6,1.3-7.5,1.3-11.1,0h0ZM44.2,62.2c-1.3-3.6-1.3-7.5,0-11.1l2.1.8c-1.2,3.1-1.2,6.4,0,9.5l-2.1.7ZM65.8,71.4l-.9-2c3-1.3,5.4-3.7,6.8-6.7h0s2,.9,2,.9h0c-1.6,3.5-4.4,6.2-7.9,7.8ZM72.2,61.6c1.2-3.1,1.2-6.4,0-9.5l2.1-.7c1.3,3.6,1.3,7.5,0,11.1l-2.1-.8h0Z"/>
      <path class="cls-7" d="M33.2,40.2c5.6-8.6,15.2-14.3,26.2-14.3s19.7,5.1,25.4,13l.3-.2c-1-1.4-2.1-2.7-3.4-4-6-6-13.9-9.3-22.3-9.3s-16.4,3.3-22.3,9.3-3,3.4-4.2,5.2l.3.2h0Z"/>
      <g>
        <path class="cls-7" d="M69.9,23.3c-.5-.1-.9-.3-1.4-.4h0s0,0,0,0v.2c.4.1.9.3,1.4.4v-.2h0Z"/>
        <path class="cls-7" d="M74.1,24.9c-.4-.2-.9-.4-1.4-.6v.2c.4.2.8.4,1.3.6v-.2Z"/>
        <path class="cls-7" d="M76.1,25.9c0,0-.1,0-.2-.1h0s0,0,0,0h0c-.4-.2-.7-.4-1.1-.6h0v.2c.3.2.8.4,1.2.7v-.2c.1,0,.1,0,.1,0Z"/>
        <path class="cls-7" d="M72,24c-.2,0-.4-.2-.7-.3h0s0,0,0,0h0s0,0,0,0h0s0,0,0,0h0s0,0,0,0h0s0,0,0,0h0s0,0,0,0h0s0,0,0,0,0,0,0,0h0s0,0,0,0h0s0,0,0,0,0,0,0,0h0s0,0,0,0h0s0,0,0,0h0s0,0,0,0h0s0,0,0,0h0s0,0,0,0h0s0,0,0,0c0,0-.2,0-.3,0v.2c.4.2.9.3,1.3.5v-.2c0,0,0,0,0,0Z"/>
        <path class="cls-7" d="M61.2,21.7c-.5,0-1,0-1.5,0v.2c.5,0,1,0,1.5,0v-.2Z"/>
        <path class="cls-7" d="M63.4,21.9h-.4s0,0,0,0h0s0,0,0,0h0c-.3,0-.6,0-.9,0v.2c.5,0,1,0,1.5.1v-.3s0,0,0,0Z"/>
        <path class="cls-7" d="M67.8,22.7c-.5-.1-1-.2-1.4-.3v.2c.4,0,.9.2,1.4.3v-.2h0Z"/>
        <path class="cls-7" d="M59.3,21.9v-.2h-.3c-.4,0-.8,0-1.2,0v.2c.5,0,1,0,1.5,0Z"/>
        <path class="cls-7" d="M86.3,34.4c-.2-.2-.4-.5-.6-.7h0s0,0,0,0h0s0,0,0,0h0s0,0,0,0c0,0,0,0,0,0,0,0,0,0,0,0,0,0,0,0,0,0s0,0,0,0h0s0,0,0,0h0s0,0,0,0h0c-.1-.1-.2-.2-.3-.4l-.2.2c.3.4.7.7,1,1.1l.2-.2h0Z"/>
        <path class="cls-7" d="M87.7,36.2s0,0,0,0h0s0,0,0,0h0s0,0,0,0h0s0,0,0,0h0s0,0,0,0h0s0,0,0,0h0s0,0,0,0c0,0,0,0,0,0,0,0,0,0,0,0,0,0,0,0,0,0,0,0,0,0,0,0,0,0,0,0,0,0,0,0,0,0,0,0h0s0,0,0,0c0,0,0,0,0,0,0,0,0,0,0,0h0s0,0,0,0h0s0,0,0,0c0,0,0,0,0,0s0,0,0,0c0,0,0,0,0,0,0,0,0,0,0,0,0,0,0,0,0,0,0,0,0,0,0,0,0,0,0,0,0,0,0,0,0,0,0,0h0s0,0,0,0c0,0,0,0,0,0h0s0,0,0,0c0,0,0,0,0,0,0,0,0,0,0,0,0,0,0,0,0,0,0,0,0,0,0,0,0,0,0,0,0,0,0,0,0,0,0,0h0s0,0,0,0c0,0,0,0,0,0,0,0,0,0,0,0h0s0,0,0,0h0s0,0,0,0c0,0,0,0,0,0,0,0,0,0,0,0h0s0,0,0,0h0s0,0,0,0h0s0,0,0,0h0s0,0,0,0h0c-.2-.2-.4-.5-.6-.7l-.2.2c.3.4.6.8.9,1.2h.2q0-.1,0-.1Z"/>
        <path class="cls-7" d="M84.7,32.9l.2-.2c-.3-.4-.7-.7-1-1.1l-.2.2c.3.3.7.7,1,1.1Z"/>
        <path class="cls-7" d="M79.8,28.3s0,0,0,0c0,0,0,0,0,0h0s0,0,0,0h0s0,0,0,0h0s0,0,0,0c0,0,0,0,0,0,0,0,0,0,0,0,0,0,0,0,0,0h0s0,0,0,0c0,0,0,0,0,0s0,0,0,0h0s0,0,0,0h0s0,0,0,0h0s0,0,0,0h0s0,0,0,0h0s0,0,0,0h0s0,0,0,0h0s0,0,0,0h0s0,0,0,0h0s0,0,0,0h0s0,0,0,0h0s0,0,0,0h0s0,0,0,0h0s0,0,0,0h0s0,0,0,0h0s0,0,0,0h0s0,0,0,0h0s0,0,0,0h0s0,0,0,0h0s0,0,0,0h0s0,0,0,0h0s0,0,0,0h0s0,0,0,0h0s0,0,0,0h0s0,0,0,0h0s0,0,0,0h0s0,0,0,0h0s0,0,0,0c0,0,0,0,0,0h0s0,0,0,0c0,0,0,0,0,0,0,0,0,0,0,0,0,0,0,0,0,0,0,0,0,0,0,0h0s0,0,0,0h0s0,0,0,0,0,0,0,0c0,0,0,0,0,0h0s0,0,0,0h0s0,0,0,0h0s0,0,0,0h0s0,0,0,0h0c-.2-.2-.4-.3-.7-.4v.2c.3.3.7.6,1.1.8v-.2c.1,0,.1,0,.1,0Z"/>
        <path class="cls-7" d="M78,27.1s0,0,0,0h0s0,0,0,0h0s0,0,0,0,0,0,0,0c0,0,0,0,0,0h0c-.2-.1-.5-.3-.7-.4h0s0,0,0,0h0s0,0,0,0h0s0,0,0,0h0s0,0,0,0h0s0,0,0,0h0s0,0,0,0h0s0,0,0,0h0s0,0,0,0h0l-.3-.2v.2c.3.2.7.5,1.1.8v-.2c.1,0,.1,0,.1,0Z"/>
        <path class="cls-7" d="M83.3,31.2c0,0-.1-.1-.2-.2h0s0,0,0,0h0s0,0,0,0h0s0,0,0,0h0s0,0,0,0,0,0,0,0c0,0,0,0,0,0s0,0,0,0h0s0,0,0,0h0s0,0,0,0h0s0,0,0,0h0s0,0,0,0h0c-.3-.3-.6-.5-.9-.8l-.2.2c.4.3.7.7,1.1,1l.2-.2h0Z"/>
        <path class="cls-7" d="M81.6,29.7l-.3-.2h0s0,0,0,0h0s0,0,0,0h0s0,0,0,0h0s0,0,0,0h0s0,0,0,0c0,0,0,0,0,0h0s0,0,0,0h0s0,0,0,0h0s0,0,0,0h0s0,0,0,0h0c-.2-.2-.4-.3-.7-.5h0s0,0,0,0h0s0,0,0,0h0s0,0,0,0h0s0,0,0,0h0s0,0,0,0l-.2.2c.4.3.8.6,1.2.9l.2-.2h0Z"/>
        <path class="cls-7" d="M65.6,22.2c-.2,0-.3,0-.5,0h0s0,0,0,0h-.2s0,0,0,0h0s0,0,0,0h0s0,0,0,0h0s0,0,0,0h-.2c0,0-.2,0-.3,0v.2c.5,0,.9.1,1.4.2v-.3s0,0,0,0Z"/>
        <path class="cls-7" d="M35.2,31.6l-.2-.2c-.4.3-.7.7-1.1,1l.2.2c.3-.4.7-.7,1-1Z"/>
        <path class="cls-7" d="M36.8,30.1l-.2-.2s0,0,0,0h0s0,0,0,0c0,0,0,0,0,0h0s0,0,0,0h0s0,0,0,0h0c-.2.2-.4.4-.7.6h0s0,0,0,0h0s0,0,0,0h0s0,0,0,0h0s0,0,0,0h0s0,0,0,0h0s0,0,0,0h0s0,0,0,0h0c0,0-.2.2-.2.2l.2.2c.4-.3.7-.7,1.1-1h0Z"/>
        <path class="cls-7" d="M38.6,28.7v-.2h-.1s0,0,0,0h0s0,0,0,0h0s0,0,0,0h0c-.4.3-.8.6-1.1.9l.2.2c.4-.3.8-.6,1.2-.9h0Z"/>
        <path class="cls-7" d="M32.2,34.8l-.2-.2c0,0-.1.1-.2.2h0s0,0,0,0h0s0,0,0,0h0s0,0,0,0h0s0,0,0,0h0s0,0,0,0h0s0,0,0,0c0,0,0,0,0,0,0,0,0,0,0,0s0,0,0,0h0s0,0,0,0h0s0,0,0,0h0s0,0,0,0h0s0,0,0,0h0s0,0,0,0c0,0,0,0,0,0s0,0,0,0h0s0,0,0,0h0s0,0,0,0h0s0,0,0,0h0s0,0,0,0h0s0,0,0,0h0s0,0,0,0h0s0,0,0,0h0s0,0,0,0h0s0,0,0,0h0s0,0,0,0h0s0,0,0,0h0s0,0,0,0h0s0,0,0,0h0s0,0,0,0h0s0,0,0,0h0s0,0,0,0h0s0,0,0,0h0s0,0,0,0h0s0,0,0,0c0,0,0,0,0,0s0,0,0,0h0s0,0,0,0c0,0,0,0,0,0h0s0,0,0,0,0,0,0,0,0,0,0,0h0s0,0,0,0,0,0,0,0c0,0,0,0,0,0h0s0,0,0,0h0s0,0,0,0h0s0,0,0,0h0s0,0,0,0h0c-.1.2-.2.3-.4.5h.2c.3-.2.6-.6.9-1h0Z"/>
        <path class="cls-7" d="M30.1,37.7c.3-.4.5-.8.8-1.1h-.2c-.1,0-.3.2-.4.4h0s0,0,0,0h0s0,0,0,0h0s0,0,0,0h0s0,0,0,0h0s0,0,0,0h0s0,0,0,0h0s0,0,0,0h0s0,0,0,0h0s0,0,0,0h0s0,0,0,0h0s0,0,0,0h0s0,0,0,0h0s0,0,0,0h0s0,0,0,0h0s0,0,0,0c0,0,0,0,0,0h0s0,0,0,0h0s0,0,0,0c0,0,0,0,0,0,0,0,0,0,0,0h0s0,0,0,0h0s0,0,0,0h0s0,0,0,0h0s0,0,0,0h0s0,0,0,0h0s0,0,0,0h0c0,0-.1.2-.2.2h.2c0,.1,0,.1,0,.1Z"/>
        <path class="cls-7" d="M40.4,27.4v-.2c-.3.1-.5.2-.7.4h0s0,0,0,0h0s0,0,0,0h0s0,0,0,0c0,0,0,0,0,0h0s0,0,0,0h0s0,0,0,0h0s0,0,0,0h0s0,0,0,0,0,0,0,0c0,0,0,0,0,0h0s0,0,0,0h0s0,0,0,0h0s0,0,0,0h0s0,0-.1,0h0s0,0,0,0h0s0,0,0,0h0s0,0,0,0h0s0,0,0,0h0s0,0,0,0h0s0,0,0,0c0,0,0,0,0,0,0,0,0,0,0,0,0,0,0,0,0,0h0s0,0,0,0h0s0,0,0,0h0s0,0,0,0h0s0,0,0,0h0s0,0,0,0c0,0-.1,0-.2.1v.2c.5-.3,1-.6,1.4-.8h0Z"/>
        <path class="cls-7" d="M33.6,33.1l-.2-.2h0c0,0-.1.2-.2.2h0s0,0,0,0h0s0,0,0,0h0s0,0,0,0h0s0,0,0,0h0c-.2.2-.4.4-.6.6h0s0,0,0,0h0s0,0,0,0h0s0,0,0,0h0s0,0,0,0h0s0,0,0,0h0s0,0,0,0h0s0,0,0,0h0s0,0,0,0h0s0,0,0,0h0s0,0,0,0h0s0,0,0,0l.2.2c.3-.4.6-.7,1-1.1h0Z"/>
        <path class="cls-7" d="M42.3,26.3v-.2c-.6.2-1,.5-1.4.8v.2c.5-.3,1-.5,1.4-.7h0Z"/>
        <path class="cls-7" d="M50.5,23v-.2c-.2,0-.4,0-.5.1h0s0,0,0,0h-.1s0,0,0,0h0s0,0,0,0h0s0,0,0,0h0c-.2,0-.4.1-.6.2v.2c.5-.1,1-.3,1.5-.4h0Z"/>
        <path class="cls-7" d="M57.1,22v-.2c-.4,0-.8,0-1.2,0h0s0,0,0,0h-.3v.2c.5,0,1,0,1.5-.1h0Z"/>
        <path class="cls-7" d="M54.9,22.2v-.2c-.5,0-1,.1-1.5.2v.2c.5,0,1-.2,1.5-.2Z"/>
        <path class="cls-7" d="M52.7,22.5v-.2c-.1,0-.2,0-.2,0h0s0,0,0,0h0s0,0,0,0h0s0,0,0,0h-.2s0,0,0,0h0s0,0,0,0h0s0,0,0,0h0s0,0,0,0h0c-.2,0-.4,0-.6.1v.2c.5,0,1-.2,1.5-.3h0Z"/>
        <path class="cls-7" d="M44.3,25.3v-.2c-.3,0-.4.2-.6.2h0s0,0,0,0h0s0,0,0,0h0s0,0,0,0h0s0,0,0,0h0c-.3.1-.5.3-.8.4v.2c.5-.2,1-.5,1.4-.7h0Z"/>
        <path class="cls-7" d="M46.3,24.4v-.2c-.4.1-.8.3-1.1.4,0,0,0,0,0,0h0s0,0,0,0c0,0,0,0,0,0,0,0,0,0,0,0h0s0,0,0,0h0c0,0-.1,0-.2,0v.2c.6-.2,1-.4,1.5-.6h0Z"/>
        <path class="cls-7" d="M48.4,23.6v-.2h0c-.1,0-.3,0-.4.1h0s0,0,0,0h0s0,0,0,0h0s0,0,0,0c0,0,0,0,0,0,0,0,0,0,0,0h0s0,0,0,0h0c-.2,0-.4.1-.6.2h0s0,0,0,0h0c0,0-.1,0-.2,0v.2c.5-.2,1-.3,1.5-.5h0Z"/>
      </g>
      <path class="cls-7" d="M60.3,96.9v-3.7c0,0,.2,0,.2,0v3.7c.1,0-.2,0-.2,0ZM58.3,96.8h-.3s.1-3.7.1-3.7h.2s0,3.7,0,3.7ZM62.7,96.7l-.3-3.7h.2s.3,3.7.3,3.7h-.3s0,0,0,0ZM55.9,96.7h-.3s.3-3.7.3-3.7h.2s-.3,3.7-.3,3.7ZM65,96.5l-.5-3.7h.2s.5,3.6.5,3.6h-.2ZM53.6,96.5h-.3s.5-3.7.5-3.7h.2s-.5,3.7-.5,3.7h0ZM67.3,96.1l-.7-3.7h.2s.7,3.6.7,3.6h-.2s0,0,0,0ZM51.3,96.1h-.3c0,0,.8-3.7.8-3.7h.2s-.7,3.7-.7,3.7h0ZM69.6,95.6l-.9-3.6h.2c0,0,.9,3.5.9,3.5h-.3ZM49,95.5h-.3c0,0,1-3.7,1-3.7h.2c0,0-.9,3.7-.9,3.7ZM71.8,94.9l-1.1-3.5h.2c0,0,1.1,3.5,1.1,3.5h-.2q0,0,0,0ZM46.8,94.9h-.2c0,0,1.2-3.6,1.2-3.6h.2c0,0-1.2,3.6-1.2,3.6ZM74,94.2l-1.3-3.5h.2c0,0,1.4,3.4,1.4,3.4h-.2q0,0,0,0ZM44.6,94.1h-.2c0,0,1.4-3.6,1.4-3.6h.2c0,0-1.3,3.6-1.3,3.6ZM76.2,93.3l-1.5-3.4h.2c0,0,1.5,3.3,1.5,3.3h-.2ZM42.4,93.2h-.2c0-.1,1.6-3.5,1.6-3.5h.2c0,0-1.5,3.5-1.5,3.5ZM78.3,92.3l-1.7-3.3h.2c0-.1,1.7,3.2,1.7,3.2,0,0-.2,0-.2.1ZM40.3,92.2h-.2c0-.1,1.8-3.4,1.8-3.4h.2c0,.1-1.7,3.4-1.7,3.4h0ZM80.3,91.1l-1.9-3.2h.2c0-.1,1.9,3.1,1.9,3.1h-.2q0,.1,0,.1ZM38.3,91h-.2c0-.1,1.9-3.3,1.9-3.3h.2c0,.1-1.9,3.3-1.9,3.3h0ZM82.3,89.9l-2.1-3.1h.2c0-.1,2.1,2.9,2.1,2.9h-.2q0,.1,0,.1ZM36.3,89.7l-.2-.2,2.1-3.1h.2c0,.1-2.1,3.2-2.1,3.2h0ZM84.2,88.5l-2.3-3h.2c0-.1,2.3,2.8,2.3,2.8l-.2.2h0ZM34.4,88.4l-.2-.2,2.3-2.9h.2c0,.1-2.3,3.1-2.3,3.1h0ZM86,87.1l-2.4-2.8.2-.2,2.4,2.8-.2.2ZM32.6,86.9l-.2-.2,2.5-2.8.2.2-2.4,2.8h0ZM87.7,85.5l-2.6-2.7.2-.2,2.6,2.7-.2.2ZM30.9,85.3l-.2-.2,2.6-2.7.2.2-2.6,2.7h0ZM89.3,83.8l-2.7-2.5.2-.2,2.7,2.5-.2.2h0ZM29.3,83.6l-.2-.2,2.7-2.5.2.2-2.7,2.5h0ZM90.9,82.1l-2.9-2.4.2-.2,2.9,2.4-.2.2h0ZM27.7,81.9l-.2-.2,2.9-2.3v.2c.1,0-2.7,2.4-2.7,2.4ZM92.3,80.2l-3-2.2v-.2c.1,0,3.1,2.2,3.1,2.2l-.2.2h0ZM26.3,80l-.2-.2,3-2.2v.2c.1,0-2.9,2.2-2.9,2.2ZM93.7,78.3l-3.1-2v-.2c.1,0,3.3,2,3.3,2v.2q-.1,0-.1,0ZM25,78.1v-.2c-.1,0,3-2,3-2v.2c.1,0-3,2-3,2ZM94.9,76.3l-3.2-1.9v-.2c.1,0,3.4,1.8,3.4,1.8v.2q-.1,0-.1,0ZM23.8,76.1v-.2c-.1,0,3.1-1.8,3.1-1.8v.2c.1,0-3.1,1.8-3.1,1.8h0ZM96,74.3l-3.3-1.7v-.2c.1,0,3.4,1.6,3.4,1.6v.2q-.1,0-.1,0ZM22.7,74v-.2c-.1,0,3.2-1.6,3.2-1.6v.2c.1,0-3.2,1.6-3.2,1.6ZM97,72.1l-3.4-1.5v-.2c0,0,3.5,1.4,3.5,1.4,0,0,0,.2-.1.2h0ZM21.7,71.9v-.2c0,0,3.3-1.4,3.3-1.4v.2c0,0-3.3,1.4-3.3,1.4h0ZM97.8,70l-3.5-1.3v-.2c0,0,3.6,1.3,3.6,1.3v.2ZM20.9,69.8v-.2c0,0,3.4-1.2,3.4-1.2v.2c0,0-3.4,1.3-3.4,1.3h0ZM98.6,67.7l-3.6-1.1v-.2c0,0,3.6,1,3.6,1v.2ZM20.2,67.5v-.2c0,0,3.5-1,3.5-1v.2c0,0-3.5,1-3.5,1ZM99.2,65.5l-3.6-.9v-.2c0,0,3.7.8,3.7.8v.3ZM19.6,65.3v-.2c0,0,3.6-.8,3.6-.8v.2c0,0-3.6.8-3.6.8ZM99.7,63.2l-3.7-.6v-.2s3.7.6,3.7.6v.2s0,0,0,0ZM19.1,63v-.3s3.6-.6,3.6-.6v.2s-3.6.6-3.6.6ZM100,60.9l-3.7-.4v-.2s3.7.4,3.7.4v.3ZM18.8,60.7v-.3s3.7-.4,3.7-.4v.2s-3.7.4-3.7.4ZM100.2,58.6l-3.7-.2v-.2s3.7.2,3.7.2v.3ZM18.6,58.3v-.3s3.7-.2,3.7-.2v.2s-3.7.2-3.7.2ZM100.3,56.2h-3.7v-.3h3.7v.3h0ZM22.2,56h-3.7v-.3h3.7v.3ZM96.5,54v-.2s3.7-.2,3.7-.2v.3s-3.7.2-3.7.2h0ZM22.3,53.9l-3.7-.2v-.3s3.7.2,3.7.2v.2ZM96.4,51.9v-.2s3.7-.4,3.7-.4v.3s-3.7.4-3.7.4ZM22.5,51.8l-3.7-.4v-.3s3.7.4,3.7.4v.2s0,0,0,0ZM96.1,49.8v-.2s3.6-.6,3.6-.6v.2s-3.6.6-3.6.6h0ZM22.8,49.7l-3.7-.6v-.3s3.7.7,3.7.7v.2s0,0,0,0ZM95.6,47.7v-.2c0,0,3.6-.9,3.6-.9v.3c0,0-3.6.8-3.6.8ZM23.2,47.6l-3.6-.8v-.2c0,0,3.7.9,3.7.9,0,0,0,.2,0,.2ZM95.1,45.6v-.2c0,0,3.5-1.1,3.5-1.1v.3c0,0-3.5,1-3.5,1h0ZM23.7,45.5l-3.6-1v-.2c0,0,3.6,1.1,3.6,1.1v.2ZM94.5,43.6v-.2c0,0,3.4-1.3,3.4-1.3v.2c0,0-3.4,1.2-3.4,1.2ZM24.4,43.5l-3.5-1.2v-.2c0,0,3.6,1.3,3.6,1.3v.2ZM93.7,41.6v-.2c0,0,3.3-1.5,3.3-1.5,0,0,0,.2.1.2l-3.4,1.4ZM25.1,41.5l-3.4-1.4v-.2c.1,0,3.5,1.5,3.5,1.5v.2h0ZM92.8,39.7v-.2c-.1,0,3.2-1.7,3.2-1.7,0,0,0,.2.1.2l-3.3,1.6ZM26,39.6l-3.3-1.6v-.2c.1,0,3.4,1.7,3.4,1.7v.2ZM91.9,37.8v-.2c-.1,0,3.1-1.8,3.1-1.8,0,0,0,.2.1.2l-3.3,1.8h0ZM27,37.7l-3.2-1.8v-.2c.1,0,3.4,1.9,3.4,1.9v.2ZM90.8,36v-.2c-.1,0,3-2,3-2v.2c.1,0-3,2-3,2h0ZM28.1,35.9l-3.1-2v-.2c.1,0,3.3,2,3.3,2v.2ZM89.6,34.3v-.2c-.1,0,2.9-2.2,2.9-2.2l.2.2-3,2.2h0ZM29.3,34.1l-3-2.2.2-.2,3,2.2v.2q-.1,0-.1,0ZM88.3,32.6l-.2-.2,2.9-2.4.2.2-2.9,2.3h0ZM30.6,32.5l-2.9-2.4.2-.2,2.9,2.4-.2.2h0ZM86.9,31l-.2-.2,2.7-2.5.2.2-2.8,2.5h0ZM32,30.9l-2.7-2.5.2-.2,2.7,2.5-.2.2ZM85.4,29.4l-.2-.2,2.6-2.7.2.2-2.6,2.7ZM33.5,29.3l-2.6-2.7.2-.2,2.6,2.7-.2.2h0ZM83.9,28l-.2-.2,2.4-2.8.2.2-2.4,2.8ZM35,27.9l-2.4-2.8.2-.2,2.4,2.8-.2.2ZM82.2,26.6h-.2c0-.1,2.3-3.1,2.3-3.1l.2.2-2.3,2.9h0ZM36.7,26.6l-2.3-2.9.2-.2,2.3,3h-.2ZM80.5,25.4h-.2c0-.1,2.1-3.2,2.1-3.2h.2c0,.1-2.1,3.2-2.1,3.2ZM38.4,25.3l-2.1-3.1c0,0,.1-.1.2-.2l2.1,3.1h-.2ZM78.7,24.2h-.2c0-.1,1.9-3.3,1.9-3.3,0,0,.2,0,.2.1l-2,3.2ZM40.2,24.2l-1.9-3.2h.2c0-.1,1.9,3.1,1.9,3.1h-.2ZM76.9,23.2h-.2c0-.1,1.7-3.4,1.7-3.4h.2c0,.1-1.8,3.4-1.8,3.4ZM42,23.1l-1.7-3.3h.2c0-.1,1.7,3.2,1.7,3.2,0,0-.2.1-.2.1ZM75,22.2h-.2c0-.1,1.5-3.5,1.5-3.5h.2c0,.1-1.6,3.5-1.6,3.5ZM43.9,22.2l-1.6-3.4c0,0,.2,0,.2-.1l1.5,3.4h-.2ZM73.1,21.4h-.2c0,0,1.3-3.6,1.3-3.6h.2c0,0-1.4,3.6-1.4,3.6ZM45.9,21.3l-1.4-3.5h.2c0,0,1.3,3.4,1.3,3.4h-.2ZM71.1,20.7h-.2c0,0,1.1-3.6,1.1-3.6h.3c0,0-1.2,3.6-1.2,3.6ZM47.9,20.6l-1.2-3.5h.3c0,0,1.1,3.5,1.1,3.5h-.2q0,0,0,0ZM69,20.1h-.2c0,0,.9-3.7.9-3.7h.3c0,0-1,3.7-1,3.7h0ZM49.9,20l-1-3.6h.3c0,0,.9,3.5.9,3.5h-.2ZM67,19.6h-.2s.7-3.7.7-3.7h.2s-.7,3.7-.7,3.7ZM52,19.5l-.7-3.6h.3c0,0,.7,3.6.7,3.6h-.2ZM64.9,19.2h-.2s.5-3.7.5-3.7h.3s-.5,3.7-.5,3.7h0ZM54.1,19.2l-.5-3.7h.3s.5,3.7.5,3.7h-.2ZM62.8,18.9h-.2s.3-3.7.3-3.7h.3s-.3,3.7-.3,3.7ZM56.2,18.9l-.3-3.7h.3s.3,3.7.3,3.7h-.2s0,0,0,0ZM60.6,18.8h-.2s0-3.7,0-3.7h.3s-.1,3.7-.1,3.7ZM58.3,18.8v-3.7c-.1,0,.1,0,.1,0v3.7c0,0-.1,0-.1,0Z"/>
    </g>
    <circle class="cls-9" cx="59.3" cy="56.5" r="21.8"/>
  </g>
</svg>